<svg width="49.99999999999999" height="49.99999999999999" xmlns="http://www.w3.org/2000/svg">
 <g>
  <title>background</title>
  <rect x="-1" y="-1" width="52" height="52" id="canvas_background" fill="none"/>
 </g>

 <g>
  <title>Layer 1</title>
  <path stroke="#f6c821" fill="#f6c821" d="m31.021259,18.455541l-6.208,-17.256l-6.208,17.256l-17.378,0.869l13.571,11.441l-4.607,17.736l14.622,-10.089l14.622,10.09l-4.607,-17.736l13.571,-11.441l-17.378,-0.87zm5.127,25.349l-11.335,-7.822l-11.335,7.822l3.573,-13.756l-10.652,-8.98l13.636,-0.682l4.778,-13.279l4.778,13.279l13.636,0.682l-10.652,8.98l3.573,13.756z" id="svg_1"/>
  <line fill="none" stroke="#f6c821" stroke-width="1.5" x1="24.165625" y1="7.033197" x2="24.165625" y2="36.934317" id="svg_4" stroke-linejoin="undefined" stroke-linecap="undefined"/>
  <path fill="none" stroke="#f6c821" stroke-width="NaN" fill-opacity="null" id="svg_18" d="m23.72711,8.9319c0,0 0,0.06017 0,0.06017c0,0.06017 0,0.12034 0,0.18051c0,0 0,0.06017 0,0.06017c0,0.12033 0,0.1805 0,0.24067c0,0.18051 0,0.24067 0,0.30084c0,0.12034 0,0.18051 0,0.24068c0,0.12033 0,0.1805 0,0.24067c0,0 0,0 0,0.06017c0,0.06017 0,0.1805 0,0.30084c0,0.06017 0,0.12034 0,0.18051c0,0.06016 0,0.12033 0,0.1805c0,0.06017 0,0.18051 0,0.18051c0,0.06017 -0.01382,0.18211 0,0.24067c0.03091,0.13094 0.06017,0.24068 0.06017,0.42118c0,0.12034 0,0.30084 0,0.54152c0,0.12033 0.02925,0.29023 0.06017,0.42118c0.04147,0.17567 0,0.30084 0,0.42118c0,0.1805 0,0.36101 0,0.54151c0,0.24068 -0.0553,0.42762 0,0.66186c0.03091,0.13094 0.06016,0.42118 0.06016,0.60168c0,0.18051 0,0.30084 0,0.42118c0,0.18051 0,0.30084 0,0.42118c0,0.18051 0,0.42118 0,0.60169c0,0.24067 -0.04818,0.42506 0,0.72202c0.03048,0.18781 0.06017,0.48135 0.06017,0.66185c0,0.06017 0.06017,0.18051 0.06017,0.30084c0,0.06017 0,0.12034 0,0.18051c0,0 0,0 0,0.06017c0,0 0,0 0,0.12033c0,0.18051 0,0.30085 0,0.48135c0,0.12034 0,0.24068 0,0.36101c0,0.12034 0.02891,0.30318 0,0.48135c-0.03048,0.18781 -0.06017,0.30084 -0.06017,0.36101c0,0 0,0.06017 0,0.06017c0,0.06017 0.04605,0.18967 0,0.30084c-0.03256,0.07862 -0.06017,0.12034 -0.06017,0.18051c0,0.06017 -0.06016,0.30084 -0.06016,0.48135c0,0.24067 -0.02986,0.41563 -0.06017,0.66185c-0.01471,0.11943 0,0.30084 0,0.66185c0,0.24068 0,0.48135 0,0.72202c0,0.18051 0,0.30085 0,0.48135c0,0.12034 0.02986,0.2953 0.06017,0.54152c0.02205,0.17915 0,0.30084 0,0.42118c0,0.1805 0,0.30084 0,0.48135c0,0.12033 0,0.24067 0,0.30084c0,0.12034 0,0.1805 0,0.1805c0,0.06017 0,0.06017 0,0.12034c0,0.12034 -0.05747,0.21355 -0.12034,0.42118c-0.03487,0.11518 -0.0715,0.29746 -0.12034,0.48135c-0.07874,0.29652 -0.06016,0.48135 -0.1805,0.72202c-0.06017,0.12034 -0.06017,0.24067 -0.06017,0.30084c0,0.06017 -0.01042,0.05131 -0.06017,0.12034c-0.07867,0.10915 -0.12034,0.30084 -0.12034,0.36101c0,0.06017 -0.06017,0.12034 -0.06017,0.24068c0,0.06016 -0.06016,0.1805 -0.06016,0.30084c0,0.06017 -0.02926,0.04956 -0.06017,0.1805c-0.01383,0.05856 0,0.12034 0,0.18051c0,0.12034 0,0.18051 0,0.24067c0,0.12034 0,0.24068 0,0.24068c0,0.06017 0,0.12033 0,0.12033c0,0 0.00327,0.00129 0.12033,-0.30084c0.18573,-0.47936 0.44381,-1.07321 0.72203,-1.74488c0.19673,-0.47495 0.25829,-0.61931 0.30084,-0.66186c0.04254,-0.04254 0,-0.06016 0,-0.06016c0,0 0,0 0,0.12033c0,0.12034 -0.04167,0.25187 -0.12034,0.36101c-0.04975,0.06904 -0.04634,0.18212 -0.06017,0.24068c-0.03091,0.13094 -0.03251,0.18372 -0.06016,0.30084c-0.03092,0.13094 -0.06017,0.18051 -0.06017,0.24067c0,0.06017 -0.06017,0.12034 -0.06017,0.18051c0,0.18051 -0.08818,0.47161 -0.18051,0.78219c-0.08742,0.29408 -0.08942,0.53091 -0.12033,0.66185c-0.01383,0.05856 0,0.12034 0,0.36101c0,0.30085 -0.06017,0.66186 -0.06017,1.02287c0,0.36101 0,0.66185 0,0.90253c0,0.1805 0,0.24067 0,0.30084c0,0.06017 0,0.24067 0,0.48135c0,0.1805 0,0.36101 0,0.48135c0,0.06016 0,0.12033 0,0.12033c0,0 0,0.06017 0,0.06017c0,0.06017 0,0.12034 0,0.1805c0,0.06017 0,0.18051 0,0.36102c0,0.12033 0,0.1805 0,0.24067c0,0.06017 0,0.06017 0,0.06017c0,0.06017 0,0.18051 0,0.18051c0,0.06016 0,0.06016 0,0.06016c0,0.06017 0,0.12034 0,0.12034c0,0 -0.06017,-0.12034 -0.06017,-0.1805c0,-0.06017 0,-0.06017 0,-0.06017c0,0.06017 0,0.12033 0,0.24067c0,0.06017 0,0.12034 0,0.12034c0,0.06017 0,0.06017 0,0.06017c0,0.06016 0,0.06016 0,0.12033c0,0 0,0.06017 0,0.06017c0,0 0,0.06017 0,0.12034c0,0 -0.01762,0.01762 -0.06017,0.06016c-0.04254,0.04255 0,0.18051 0,0.24068c0,0.06017 0,0.06017 0,0.12034c0,0 0,0 0,0c0,0.06016 0,0.06016 0,0.06016c0,0.12034 0,0.18051 0,0.24068c0,0 0,0.06017 0,0.06017c0,0 0,0 0,0c0,0 0.06017,0 0.06017,-0.06017c0,0 0.06017,0 0.06017,0c0,0 0,0 0.06017,0c0,0 0,0 0,0c0.06016,0 0.06016,0 0.06016,0.06017c0,0 0,0 0,0c0,0.06017 -0.07161,0.23354 -0.1805,0.42118c-0.06753,0.11636 -0.12034,0.24067 -0.18051,0.30084c0,0 -0.01762,0.01762 -0.06017,0.06017c-0.04254,0.04254 -0.04172,0.08777 -0.12033,0.12033c-0.05559,0.02303 -0.07779,0.0778 -0.12034,0.12034c-0.04255,0.04255 -0.11148,0.07058 -0.18051,0.12034c-0.10914,0.07866 -0.1805,0.06017 -0.24067,0.12033c0,0 -0.06475,0.03715 -0.12034,0.06017c-0.07861,0.03257 -0.10189,0.14795 -0.1805,0.18051c-0.05559,0.02302 -0.11148,0.13075 -0.18051,0.18051c-0.10914,0.07866 -0.1699,0.14959 -0.30084,0.1805c-0.05856,0.01382 -0.07779,0.07779 -0.12034,0.12034c-0.04254,0.04254 -0.10183,0.07136 -0.1805,0.1805c-0.04976,0.06903 -0.06017,0.12034 -0.12034,0.12034c-0.06017,0 -0.12034,0 -0.24067,0c-0.06017,0 -0.18051,0.06017 -0.24068,0.06017c-0.12033,0 -0.1805,0.06016 -0.30084,0.06016c-0.12034,0 -0.30245,0.04635 -0.36101,0.06017c-0.13094,0.03091 -0.12034,0.06017 -0.24067,0.12034c0,0 -0.01763,0.07779 -0.06017,0.12033c-0.04255,0.04255 -0.09731,0.06476 -0.12034,0.12034c-0.03256,0.07862 -0.14794,0.1019 -0.18051,0.18051c-0.02302,0.05558 -0.06016,0.12034 -0.12033,0.1805c0,0 -0.03714,0.06476 -0.06017,0.12034c-0.03256,0.07862 -0.12034,0.12034 -0.18051,0.18051c0,0 -0.06474,0.03714 -0.12033,0.06017c-0.07862,0.03256 -0.18509,0.0973 -0.24068,0.12033c-0.07861,0.03256 -0.12033,0.06017 -0.1805,0.12034c-0.06017,0.06017 -0.16207,0.14794 -0.24068,0.1805c-0.05559,0.02303 -0.14554,0.02521 -0.24067,0.12034c-0.09514,0.09514 -0.10184,0.1917 -0.18051,0.30084c-0.04975,0.06903 -0.14794,0.1019 -0.1805,0.18051c-0.02303,0.05558 -0.18051,0.12034 -0.12034,0.1805c0.06017,0.06017 0.12034,-0.12033 0.18051,-0.1805c0.12033,-0.12034 0.29018,-0.25183 0.54151,-0.48135c0.34701,-0.31689 0.84806,-0.65438 1.32371,-1.02286c0.30456,-0.23595 0.49254,-0.34251 0.60169,-0.42118c0.06902,-0.04975 0.12033,-0.06017 0.1805,-0.06017c0.06017,0 0.06017,0 0.12034,-0.06017c0,0 0.12033,-0.06017 0.12033,-0.06017c0.06017,0 0.12034,-0.06017 0.12034,-0.06017c0.06017,0 0.06017,-0.06016 0.12034,-0.06016c0,0 0,0 0,-0.06017c0,0 0,0 0,0c-0.12034,0 -0.18051,0.06017 -0.30084,0.1805c-0.06017,0.06017 -0.17876,0.24334 -0.36101,0.36101c-0.47687,0.30789 -0.75014,0.42634 -1.14321,0.66186c-0.33048,0.19802 -0.60168,0.42118 -0.78219,0.54151c-0.1805,0.12034 -0.29198,0.19093 -0.36101,0.24068c-0.10914,0.07866 -0.17164,0.07058 -0.24067,0.12033c-0.10915,0.07868 -0.24539,0.1077 -0.42118,0.18051c-0.1243,0.05149 -0.28312,0.14117 -0.42118,0.24068c-0.10914,0.07866 -0.16206,0.08777 -0.24068,0.12033c-0.05558,0.02303 -0.18508,0.03714 -0.24067,0.06017c-0.07861,0.03256 -0.12491,0.09731 -0.1805,0.12034c-0.07862,0.03256 -0.12492,0.09731 -0.18051,0.12033c-0.07861,0.03256 -0.10189,0.08778 -0.1805,0.12034c-0.05559,0.02303 -0.12492,0.03714 -0.18051,0.06017c-0.07862,0.03256 -0.04173,0.08777 -0.12034,0.12033c-0.05559,0.02303 -0.12034,0.06017 -0.12034,0.06017c0,0.06017 -0.06016,0.06017 -0.06016,0.06017c-0.06017,0.06017 -0.07779,0.0778 -0.12034,0.12034c-0.04255,0.04255 -0.07779,0.01762 -0.12034,0.06017c-0.04254,0.04254 -0.07779,-0.04255 -0.12033,0c-0.04255,0.04254 -0.06017,0.06016 -0.06017,0.06016c0,0 -0.06017,0.06017 -0.06017,0.06017c-0.06017,0 -0.06017,0.06017 -0.12034,0.06017c-0.06017,0 -0.06017,0.06017 -0.06017,0.06017c-0.06017,0 -0.07779,0.01763 -0.12033,0.06017c-0.04255,0.04254 -0.01763,0.07779 -0.06017,0.12034c-0.04255,0.04254 -0.06017,0.06016 -0.12034,0.06016c0,0 -0.01762,0.01763 -0.06017,0.06017c-0.04254,0.04255 -0.06016,0 -0.12033,0.06017c0,0 -0.01763,-0.04254 -0.06017,0c-0.04255,0.04254 0,0.06017 0,0.06017c-0.06017,0.06017 -0.08778,0.04172 -0.12034,0.12034c-0.02303,0.05558 -0.01762,0.01762 -0.06017,0.06016c-0.04254,0.04255 0,0.06017 0,0.06017c-0.06017,0.06017 -0.06017,0.06017 -0.06017,0.06017c0,0.06017 0,0.06017 0,0.06017c-0.06016,0.06017 -0.06016,0.06017 -0.06016,0.12034c0,0 -0.06017,0 -0.06017,0c0,0 0,0.06016 0,0.06016c-0.06017,0 -0.06017,0 -0.06017,0.06017c0,0 0,0 -0.06017,0c0,0 0,0 0,0c-0.06017,0 -0.06017,0.06017 -0.06017,0.06017c0,0 0,0 0,0c-0.06017,0.06017 -0.06017,0.06017 -0.06017,0.06017c0,0 0,0 -0.06016,0.06017c0,0 0,0 0,0c0,0.06017 0,0.06017 -0.06017,0.06017c0,0 0,0 0,0c0,0 -0.06017,0 -0.06017,0c-0.06017,0 -0.06017,-0.06017 -0.12034,-0.12034c0,0 0,-0.12034 0,-0.12034c0,-0.06017 0,-0.12034 0,-0.1805c0,-0.06017 0.02761,-0.16206 0.06017,-0.24068c0.02303,-0.05559 0.01762,-0.07779 0.06017,-0.12034c0.04254,-0.04254 0.01762,-0.01762 0.06017,-0.06016c0.04254,-0.04255 0.06017,0 0.06017,0c0,0 0.06016,0 0.06016,0c0,0 0,0 0.06017,-0.06017c0,0 0,-0.06017 0,-0.06017c0,-0.06017 0,-0.06017 0,-0.12034c0,0 0,-0.06017 0,-0.06017c0,-0.06016 0,-0.06016 0,-0.12033c0,0 0,0 0,-0.06017c0,0 0,0 0,0c0,-0.06017 0,-0.06017 0,-0.12034c0,0 0.01762,0.04255 0.06017,0c0.04254,-0.04254 0,-0.06016 0,-0.06016c0,-0.12034 0.04089,-0.24223 0.06017,-0.36101c0.03048,-0.18782 0.06885,-0.23672 0.12034,-0.36102c0.07281,-0.17579 0.08777,-0.28239 0.12033,-0.36101c0.02303,-0.05559 0.01763,-0.07779 0.06017,-0.12034c0.04254,-0.04254 0,-0.06016 0,-0.12033c0,-0.06017 0.06017,-0.12034 0.06017,-0.18051c0,-0.06017 0.01411,-0.12949 0.06017,-0.24067c0.03256,-0.07862 0.06017,-0.18051 0.06017,-0.30084c0,-0.12034 0.06016,-0.18051 0.06016,-0.24068c0,-0.06017 0.02926,-0.10973 0.06017,-0.24067c0.01383,-0.05856 0.02926,-0.10973 0.06017,-0.24068c0.02765,-0.11711 -0.04147,-0.18533 0,-0.36101c0.03091,-0.13094 0.03252,-0.30406 0.06017,-0.42118c0.03091,-0.13094 0.08942,-0.1699 0.12034,-0.30084c0.01382,-0.05856 0.06016,-0.18051 0.06016,-0.24067c0,-0.06017 0.06017,-0.12034 0.06017,-0.18051c0,-0.06017 0.06017,-0.12034 0.06017,-0.1805c0,-0.06017 0.06017,-0.12034 0.06017,-0.12034c0,-0.06017 0,-0.12034 0,-0.18051c0,-0.06016 0,-0.12033 0,-0.12033c0,-0.12034 -0.04605,-0.24984 0,-0.36102c0.03256,-0.07861 0.06017,-0.1805 0.06017,-0.24067c0,-0.12034 0.06016,-0.1805 0.06016,-0.24067c0,-0.12034 0.06017,-0.18051 0.06017,-0.30084c0,-0.06017 0.02761,-0.16207 0.06017,-0.24068c0.04605,-0.11118 0.03714,-0.24526 0.06017,-0.30084c0.03256,-0.07861 0.06017,-0.06017 0.12034,-0.12034c0,0 0,-0.06017 0,-0.12034c0,0 0,-0.06016 0.06016,-0.06016c0,0 0,-0.06017 0,-0.12034c0,-0.06017 0,-0.06017 0.06017,-0.18051c0,0 0,-0.06017 0,-0.12033c0,-0.06017 0.02926,-0.10974 0.06017,-0.24068c0.01382,-0.05856 -0.02765,-0.12355 0,-0.24067c0.03091,-0.13094 0.08943,-0.1699 0.12034,-0.30084c0.01382,-0.05856 0.06017,-0.18051 0.06017,-0.24068c0,-0.06017 0.08777,-0.10189 0.12033,-0.1805c0.04606,-0.11118 0.06017,-0.18051 0.06017,-0.24068c0,-0.06017 0.01412,-0.12949 0.06017,-0.24067c0.03256,-0.07861 0.12034,-0.18051 0.12034,-0.24067c0,-0.12034 0.08942,-0.16991 0.12034,-0.30085c0.01382,-0.05856 0.0276,-0.10189 0.06016,-0.1805c0.02303,-0.05559 0.06017,-0.18051 0.06017,-0.24068c0,-0.12033 0.06017,-0.1805 0.06017,-0.1805c0,-0.06017 0.04634,-0.12195 0.06017,-0.18051c0.03091,-0.13094 0.03714,-0.18508 0.06017,-0.24067c0.03256,-0.07862 0.06017,-0.12034 0.06017,-0.18051c0,-0.12034 0.03714,-0.18508 0.06016,-0.24067c0.03257,-0.07862 0.06017,-0.06017 0.06017,-0.12034c0,-0.06017 0.06017,-0.06017 0.06017,-0.12034c0,0 0,-0.06016 0,-0.06016c0,-0.06017 0.06017,-0.12034 0.06017,-0.12034c0,-0.06017 0,-0.06017 0,-0.12034c0,0 0,-0.06017 0,-0.06017c0,0 0,0.06017 0,0.06017c-0.06017,0.06017 -0.12034,0.12034 -0.12034,0.18051c0,0 0,-0.06017 0,-0.06017c0,-0.06017 0,-0.06017 0,-0.12034c0,0 0,0 0,-0.06017c0,-0.06016 0,-0.12033 0,-0.1805c0,-0.06017 0.02926,-0.10974 0.06017,-0.24068c0.01382,-0.05855 0.06017,-0.06016 0.06017,-0.12033c0,-0.06017 -0.02303,-0.12492 0,-0.18051c0.03256,-0.07861 0.06016,-0.06017 0.06016,-0.12034c0,0 0,-0.06017 0,-0.06017c0,-0.06016 0,-0.06016 0,-0.06016c0,0 0,-0.06017 0,-0.06017c0,0 0,0 0,0.06017c0,0 0,0 -0.06016,0c0,0 0,0 0,0.06016c0,0 -0.07137,0.0185 -0.18051,-0.06016c-0.06903,-0.04976 -0.17164,-0.13076 -0.24067,-0.18051c-0.10915,-0.07867 -0.16207,-0.08777 -0.24068,-0.12034c-0.05559,-0.02302 -0.06017,-0.06016 -0.12034,-0.06016c0,0 -0.06016,0 -0.06016,0c-0.06017,0 -0.06017,0 -0.12034,-0.06017c0,0 -0.07779,-0.01763 -0.12034,-0.06017c-0.04254,-0.04255 0,-0.06017 -0.06017,-0.06017c0,0 0,-0.06017 -0.06016,-0.06017c0,0 -0.01763,-0.07779 -0.06017,-0.12033c-0.04255,-0.04255 -0.09731,-0.06475 -0.12034,-0.12034c-0.03256,-0.07862 -0.12034,-0.12034 -0.1805,-0.18051c-0.06017,-0.06016 -0.13153,-0.10184 -0.24068,-0.1805c-0.06903,-0.04976 -0.12034,-0.12034 -0.1805,-0.18051c-0.06017,-0.06017 -0.07779,-0.07779 -0.12034,-0.12034c-0.04255,-0.04254 -0.07779,-0.01762 -0.12034,-0.06016c-0.04254,-0.04255 -0.07779,-0.0778 -0.12033,-0.12034c-0.04255,-0.04255 -0.06017,-0.06017 -0.12034,-0.12034c0,0 -0.06017,-0.06016 -0.12034,-0.12033c-0.06017,-0.06017 -0.12034,-0.12034 -0.1805,-0.18051c-0.06017,-0.06017 -0.14795,-0.04172 -0.18051,-0.12034c-0.02303,-0.05559 -0.01762,-0.07779 -0.06017,-0.12033c-0.04254,-0.04255 -0.12033,0 -0.12033,-0.06017c0,0 0,0 -0.06017,-0.06017c0,0 0,0 0,0c-0.06017,-0.06017 -0.06475,-0.03714 -0.12034,-0.06017c-0.07861,-0.03256 -0.12034,-0.06017 -0.1805,-0.12034c-0.06017,-0.06017 -0.13797,-0.13796 -0.18051,-0.1805c-0.04255,-0.04255 -0.10189,-0.08778 -0.18051,-0.12034c-0.05558,-0.02303 -0.12033,-0.06017 -0.1805,-0.12034c-0.06017,-0.06016 -0.12034,-0.06016 -0.24068,-0.1805c0,0 -0.06016,-0.06017 -0.12033,-0.12034c-0.06017,-0.06017 -0.18051,-0.12034 -0.30084,-0.24067c-0.06017,-0.06017 -0.12034,-0.06017 -0.18051,-0.12034c0,0 -0.06017,-0.06017 -0.12034,-0.12034c-0.06017,-0.06017 -0.14794,-0.10189 -0.1805,-0.1805c-0.02303,-0.05559 -0.05131,-0.07059 -0.12034,-0.12034c-0.10915,-0.07867 -0.1917,-0.10184 -0.30084,-0.18051c-0.06903,-0.04975 -0.10189,-0.08777 -0.18051,-0.12033c-0.05559,-0.02303 -0.06475,-0.03715 -0.12034,-0.06017c-0.07861,-0.03257 -0.07779,-0.07779 -0.12033,-0.12034c-0.04255,-0.04255 -0.06017,-0.06017 -0.12034,-0.06017c-0.06017,0 -0.04172,-0.08777 -0.12034,-0.12034c-0.05558,-0.02302 -0.12033,-0.06016 -0.1805,-0.12033c0,0 -0.06017,-0.06017 -0.12034,-0.12034c-0.06017,-0.06017 -0.09731,-0.06475 -0.12034,-0.12034c-0.03256,-0.07861 -0.12491,-0.09731 -0.1805,-0.12033c-0.07862,-0.03257 -0.12492,-0.09732 -0.18051,-0.12034c-0.07861,-0.03256 -0.12492,-0.09731 -0.1805,-0.12034c-0.07862,-0.03256 -0.12034,-0.12034 -0.18051,-0.1805c-0.06017,-0.06017 -0.06017,-0.06017 -0.12034,-0.12034c-0.06016,-0.06017 -0.06016,-0.12034 -0.12033,-0.18051c-0.06017,-0.06017 -0.12034,-0.12033 -0.18051,-0.1805c-0.06017,-0.06017 -0.07429,-0.1295 -0.12034,-0.24068c-0.03256,-0.07861 -0.12033,-0.12033 -0.1805,-0.1805c-0.06017,-0.06017 -0.07779,-0.13796 -0.12034,-0.18051c-0.04254,-0.04254 -0.07779,-0.07779 -0.12034,-0.12034c-0.04254,-0.04254 -0.04172,-0.0276 -0.12033,-0.06016c-0.05559,-0.02303 -0.04173,-0.02761 -0.12034,-0.06017c-0.05559,-0.02303 -0.07779,-0.01763 -0.12034,-0.06017c-0.04254,-0.04255 -0.07779,-0.01762 -0.12033,-0.06017c-0.04255,-0.04254 -0.06017,0 -0.12034,-0.06017c0,0 -0.02854,-0.06915 -0.06017,-0.12033c-0.07073,-0.11445 -0.13796,-0.0778 -0.1805,-0.12034c-0.04255,-0.04255 -0.06017,-0.06017 -0.06017,-0.06017c0,0 -0.06017,0 -0.06017,-0.06017c0,0 -0.06017,0 -0.06017,0c0,-0.06017 -0.06017,-0.06017 -0.06017,-0.06017c-0.06017,0 -0.06017,-0.06016 -0.06017,-0.06016c-0.06016,0 -0.06016,-0.06017 -0.06016,-0.06017c-0.06017,0 -0.0778,0.04254 -0.12034,0c-0.04255,-0.04255 -0.06017,-0.06017 -0.06017,-0.06017c-0.06017,0 -0.01762,-0.07779 -0.06017,-0.12034c-0.04254,-0.04254 -0.06017,0 -0.06017,0c-0.06017,-0.06017 -0.06017,-0.06017 -0.12033,-0.12034c0,0 -0.01763,0.04255 -0.06017,0c-0.04255,-0.04254 0,-0.06016 -0.06017,-0.06016c0,0 0,-0.06017 0,-0.06017c-0.06017,0 -0.06017,0 -0.06017,0c0,0 -0.06017,0 -0.06017,0c0,0 0,0 -0.06017,0c0,0 0,0 0,-0.06017c0,0 0,0 0,0c0.06017,0 0.06017,0 0.18051,0c0.06017,0 0.12034,0 0.24067,0c0.06017,0 0.12034,0.06017 0.18051,0.06017c0.06017,0 0.04172,0.0276 0.12034,0.06017c0.05558,0.02302 0.12033,0 0.1805,0c0,0 0.06017,0 0.12034,0c0.06017,0 0.12034,0 0.1805,0c0,0 0.06017,0 0.12034,0c0,0 0.06017,0 0.06017,0c0.06017,0 0.12034,0 0.12034,0c0.06017,-0.06017 0.04172,-0.08778 0.12033,-0.12034c0.05559,-0.02303 0.12034,0 0.18051,0c0.06017,0 0.06017,-0.06017 0.12034,-0.06017c0.06016,0 0.12033,0 0.12033,0c0.06017,0 0.06017,0 0.12034,0c0,0 0.06017,0 0.12034,0c0,0 0.06017,0 0.12033,0c0,0 0.01763,-0.01762 0.06017,-0.06017c0.04255,-0.04254 0.12034,0 0.12034,0c0.06017,0 0.10973,-0.02925 0.24067,-0.06017c0.05856,-0.01382 0.12034,0 0.18051,0c0.06017,0 0.10189,-0.0276 0.18051,-0.06016c0.11117,-0.04605 0.1805,0 0.30084,0c0.06017,0 0.12033,0 0.24067,0c0.06017,0 0.12034,0 0.18051,0c0.06017,0 0.12033,0 0.1805,0c0.06017,0 0.06017,0 0.18051,0c0,0 0.06017,0 0.1805,0c0.06017,0 0.06017,0 0.12034,0c0.06017,0 0.12034,0 0.18051,0c0.12033,0 0.1805,0 0.24067,0c0.12034,0 0.18051,0 0.30084,0c0.06017,0 0.12034,0 0.18051,0c0.06017,0 0.06017,0 0.12034,0c0.06016,0 0.12033,0 0.12033,0c0.06017,0 0.12034,0 0.12034,0c0.06017,0 0.12034,0 0.12034,0c0.06017,0 0.12033,0 0.1805,0c0.06017,0 0.06017,0 0.18051,0c0.06017,0 0.12034,0 0.1805,0c0.06017,0 0.12034,0 0.18051,0c0.06017,0 0.12034,0 0.18051,0c0.12033,0 0.1805,0 0.24067,0c0.12034,0 0.24067,0 0.30084,0c0.06017,0 0.12034,0 0.18051,0c0.06017,0 0.12034,0 0.1805,0c0.06017,0 0.12034,0 0.18051,0c0.12034,0 0.1699,-0.02926 0.30084,-0.06017c0.05856,-0.01383 0.12034,0 0.18051,0c0.06017,0 0.10973,-0.02926 0.24067,-0.06017c0.05856,-0.01382 0.18051,0 0.24068,0c0.06016,0 0.10189,-0.02761 0.1805,-0.06017c0.05559,-0.02302 0.18051,0 0.24067,0c0.06017,0 0.12034,0 0.24068,0c0.06017,0 0.12034,0 0.24067,0c0.06017,0 0.06178,0.01383 0.12034,0c0.13094,-0.03091 0.18051,-0.06017 0.24067,-0.06017c0.12034,0 0.10974,-0.02925 0.24068,-0.06016c0.05856,-0.01383 0.12034,0 0.1805,0c0.06017,0 0.10189,-0.02761 0.18051,-0.06017c0.05559,-0.02303 0.18372,0.02765 0.30084,0c0.13094,-0.03091 0.24068,-0.06017 0.36101,-0.06017c0.12034,0 0.24984,0.04605 0.36102,0c0.07861,-0.03256 0.1805,-0.06017 0.24067,-0.06017c0.06017,0 0.12034,0 0.1805,0c0,0 0.04173,-0.0276 0.12034,-0.06017c0.05559,-0.02302 0.12034,0 0.18051,0c0,0 0.06017,0 0.06017,0c0.06016,0 0.06016,0 0.12033,0c0.06017,0 0.06017,0 0.12034,0c0.06017,0 0.12034,0 0.18051,0c0,0 0.09541,0.0851 0.1805,0c0.04255,-0.04254 0.06017,-0.06016 0.12034,-0.06016c0.06017,0 0.07779,0.04254 0.12034,0c0.04254,-0.04255 0.06017,-0.06017 0.06017,-0.06017c0,0 0.01762,-0.01763 0.06016,-0.06017c0.04255,-0.04255 0,-0.06017 0,-0.06017c0,-0.06017 0,-0.12034 0,-0.12034c0,0 0,-0.06016 0.06017,-0.06016c0,0 0,-0.06017 0,-0.06017c0,-0.06017 0,-0.06017 0,-0.06017c0,0 0,-0.06017 0.06017,-0.06017c0,0 0.01762,-0.01762 0.06017,-0.06017c0.04254,-0.04254 -0.02303,-0.06475 0,-0.12034c0.03256,-0.07861 0.01762,-0.07779 0.06017,-0.12033c0.04254,-0.04255 0.06016,-0.06017 0.06016,-0.06017c0.06017,-0.06017 0.06017,-0.12034 0.06017,-0.12034c0.06017,-0.06017 0.06017,-0.06017 0.06017,-0.12034c0,0 -0.04254,-0.01762 0,-0.06016c0.04255,-0.04255 0.04255,0.04254 0,0c-0.04254,-0.04255 0,-0.06017 -0.06017,-0.06017c0,0 0,0 0,0c-0.06017,0 -0.06017,0 -0.06017,0c-0.06016,0.06017 -0.06016,0.06017 -0.06016,0c0,-0.06017 0.04167,-0.13153 0.12033,-0.24068c0.04976,-0.06903 0.04167,-0.13153 0.12034,-0.24067c0.04975,-0.06903 0.12034,-0.06017 0.12034,-0.12034c0,0 0,-0.06016 0.06016,-0.12033c0,0 0,-0.06017 0,-0.12034c0,-0.06017 0.06017,-0.06017 0.06017,-0.12034c0,-0.06017 0.03715,-0.18508 0.06017,-0.24067c0.03256,-0.07862 0.03714,-0.06475 0.06017,-0.12034c0.03256,-0.07862 0.08777,-0.10189 0.12034,-0.18051c0.02302,-0.05558 0.0276,-0.10189 0.06017,-0.1805c0.02302,-0.05559 0.06016,-0.12034 0.06016,-0.24068c0,-0.06016 0.06017,-0.12033 0.06017,-0.12033c0,-0.06017 0.02761,-0.10189 0.06017,-0.18051c0.02303,-0.05559 0,-0.06017 0,-0.12034c0,0 0,0 0.06017,-0.06016c0,0 0,-0.06017 0,-0.12034c0,-0.06017 0.06017,-0.12034 0.06017,-0.18051c0,-0.06017 0.04634,-0.18211 0.06017,-0.24067c0.03091,-0.13094 0.08942,-0.1699 0.12033,-0.30084c0.02765,-0.11712 0.08943,-0.23007 0.12034,-0.36102c0.01382,-0.05855 0.08777,-0.16206 0.12034,-0.24067c0.02302,-0.05559 0.06017,-0.18051 0.12033,-0.24067c0,0 0.08943,-0.10974 0.12034,-0.24068c0.01383,-0.05856 0.08943,-0.10973 0.12034,-0.24067c0.01382,-0.05856 0.01412,-0.1295 0.06017,-0.24068c0.03256,-0.07861 0.01411,-0.12949 0.06016,-0.24067c0.03257,-0.07861 0.01412,-0.1295 0.06017,-0.24067c0.03257,-0.07862 0.08943,-0.10974 0.12034,-0.24068c0.01382,-0.05856 0.08777,-0.10189 0.12034,-0.1805c0.02302,-0.05559 0.06017,-0.12034 0.06017,-0.18051c0,-0.06017 0.03714,-0.12491 0.06017,-0.1805c0.03256,-0.07862 0.06016,-0.12034 0.06016,-0.12034c0,-0.06017 0.06017,-0.12034 0.06017,-0.18051c0,-0.06017 0,-0.12033 0,-0.12033c0.06017,-0.06017 0.06017,-0.12034 0.06017,-0.12034c0,-0.06017 0,-0.12034 0,-0.12034c0,-0.06017 0,-0.12034 0.06017,-0.1805c0,0 0,-0.06017 0,-0.12034c0,-0.06017 -0.04255,-0.13796 0,-0.18051c0.04254,-0.04254 0.06017,-0.12033 0.06017,-0.12033c0.06016,-0.12034 0.06016,-0.12034 0.06016,-0.18051c0,-0.06017 0.06017,-0.12034 0.06017,-0.18051c0,0 0,-0.06016 0.06017,-0.12033c0,0 0.01762,-0.01763 0.06017,-0.06017c0.04254,-0.04255 -0.04255,-0.07779 0,-0.12034c0.04254,-0.04254 0.03714,-0.00458 0.06017,-0.06017c0.03256,-0.07861 0.06016,-0.06016 0.06016,-0.06016c0,-0.06017 0.06017,-0.06017 0.06017,-0.06017c0,0.06017 0,0.12033 0,0.30084c0,0.1805 -0.02969,0.23337 -0.06017,0.42118c-0.01927,0.11878 0.00891,0.25441 -0.06016,0.42118c-0.03257,0.07861 -0.06017,0.1805 -0.06017,0.30084c0,0.06017 0,0.12034 0,0.18051c0,0.06016 0,0.12033 0,0.1805c0,0.06017 0.02926,0.10973 0.06017,0.24068c0.01382,0.05855 0,0.12033 0,0.1805c0,0.06017 0.06016,0.18051 0.06016,0.24068c0,0.06016 0.06017,0.1805 0.06017,0.24067c0,0.12034 0,0.18051 0,0.30084c0,0.06017 -0.04605,0.1295 0,0.24068c0.03257,0.07861 0.06017,0.1805 0.06017,0.24067c0,0.12034 0,0.18051 0,0.30084c0,0.06017 0,0.12034 0,0.24068c0,0.12033 0,0.1805 0,0.30084c0,0.06017 0,0.12033 0,0.1805c0,0.12034 0.02765,0.18373 0,0.30085c-0.03091,0.13094 -0.06017,0.30084 -0.06017,0.36101c0,0.06016 -0.0276,0.10189 -0.06017,0.1805c-0.02302,0.05559 0,0.06017 0,0.12034c0,0.06017 -0.06016,0.12034 -0.06016,0.18051c0,0.06016 0,0.06016 0,0.12033c0,0 -0.05098,-0.00248 -0.12034,-0.24067c-0.0532,-0.18268 -0.06017,-0.42118 -0.06017,-0.60169c0,-0.1805 0,-0.36101 0,-0.48134c0,-0.12034 0,-0.18051 0,-0.24068c0,-0.06017 0,-0.12033 0,-0.1805c0,-0.06017 0,-0.12034 0,-0.24068c0,-0.06017 -0.08777,-0.04172 -0.12033,-0.12033c-0.02303,-0.05559 -0.06017,-0.06017 -0.06017,-0.06017c-0.06017,0 -0.07059,-0.00886 -0.12034,0.06017c-0.07867,0.10914 -0.11868,0.21946 -0.18051,0.48134c-0.04147,0.17568 -0.0715,0.35762 -0.12033,0.54152c-0.07875,0.29652 -0.16324,0.54774 -0.30085,0.90253c-0.21428,0.55249 -0.36995,0.95943 -0.54151,1.44404c-0.127,0.35872 -0.20048,0.73582 -0.30084,0.9627c-0.08777,0.19839 -0.14795,0.28239 -0.18051,0.36101c-0.02303,0.05559 -0.08777,0.16206 -0.12034,0.24067c-0.02302,0.05559 -0.06016,0.12034 0,0.12034c0.06017,0 -0.0294,-0.18231 0,-0.42118c0.03031,-0.24622 0.17885,-0.46014 0.24068,-0.72202c0.05529,-0.23424 0.04089,-0.42274 0.06016,-0.54152c0.03048,-0.18781 0.04753,-0.30556 0.12034,-0.48135c0.05149,-0.1243 0.09691,-0.25025 0.18051,-0.42118c0.09531,-0.19488 0.21308,-0.46345 0.30084,-0.66185c0.10036,-0.22687 0.15003,-0.41387 0.18051,-0.60169c0.01927,-0.11878 0.08985,-0.29353 0.12033,-0.48134c0.02892,-0.17818 0.10769,-0.36573 0.18051,-0.54152c0.05149,-0.1243 0.12034,-0.24067 0.1805,-0.30084c0.06017,-0.06017 0.06017,-0.12034 0.12034,-0.18051c0.06017,-0.06017 0.06017,-0.12033 0.12034,-0.12033c0,0 0.06017,-0.06017 0.06017,-0.06017c0,0 0.06017,0 0.06017,0c0,0 0,0 0.06016,0c0,0 0,0 0,0.06017c0,0.12033 0.03855,0.24378 0,0.48134c-0.06095,0.37563 -0.1805,0.66186 -0.1805,1.02287c0,0.36101 0,0.72202 0,1.1432c0,0.30084 0,0.60168 0,0.90253c0,0.1805 0,0.36101 0,0.48134c0,0.18051 -0.12608,0.35965 -0.18051,0.60169c-0.0673,0.29933 -0.19984,0.65036 -0.30084,0.84236c-0.15085,0.28676 -0.25934,0.46444 -0.42118,0.66185c-0.13754,0.16777 -0.30084,0.36101 -0.48135,0.54152c-0.12033,0.12034 -0.26587,0.14554 -0.36101,0.24067c-0.09513,0.09514 -0.1805,0.18051 -0.24067,0.18051c-0.06017,0 -0.1502,0.00555 -0.18051,-0.24068c-0.0294,-0.23887 -0.0259,-0.73002 0.06017,-0.96269c0.09336,-0.25237 0.20976,-0.35041 0.24067,-0.48135c0.02765,-0.11712 0.06017,-0.1805 0.12034,-0.24067c0.06017,-0.06017 0.12034,-0.18051 0.18051,-0.30085c0.06016,-0.12033 0.07428,-0.24983 0.12033,-0.36101c0.03257,-0.07861 0.06475,-0.09731 0.12034,-0.12033c0.07861,-0.03257 0.06017,-0.06017 0.12034,-0.06017c0.06017,0 0.06017,0 0.06017,0.12033c0,0.12034 0.03487,0.30601 0,0.42118c-0.06287,0.20764 -0.16787,0.36573 -0.24068,0.54152c-0.05148,0.1243 -0.13075,0.29198 -0.1805,0.36101c-0.07867,0.10914 -0.0778,0.19813 -0.12034,0.24068c-0.04255,0.04254 -0.06017,0.06016 -0.06017,-0.06017c0,-0.18051 0,-0.36102 0.12034,-0.54152c0.12034,-0.1805 0.22803,-0.36573 0.30084,-0.54152c0.05149,-0.12429 0.09269,-0.18372 0.12034,-0.30084c0.03091,-0.13094 0.10106,-0.18206 0.12033,-0.30084c0.03048,-0.18781 0.12034,-0.30084 0.18051,-0.42118c0.06017,-0.12034 0.05707,-0.19848 0.12034,-0.30084c0.07073,-0.11445 0.16201,-0.13153 0.24067,-0.24068c0.04976,-0.06902 0.12034,-0.12033 0.18051,-0.1805c0,0 0.12034,-0.06017 0.12034,-0.06017c0.06016,-0.06017 0.12033,-0.06017 0.1805,-0.06017c0.06017,0 0.12034,0 0.18051,0c0,0 0.06016,0 0.06016,0c0.06017,0 0.08778,0.04173 0.12034,0.12034c0.02303,0.05559 0,0.18051 0,0.24067c0,0.12034 0.02303,0.24526 0,0.30085c-0.03256,0.07861 -0.06017,0.12033 -0.06017,0.24067c0,0.12034 -0.06016,0.18051 -0.06016,0.30084c0,0.06017 0,0.12034 0,0.18051c0,0.06017 0.02925,0.1699 0.06016,0.30084c0.02765,0.11712 0.03812,0.30219 0.06017,0.48135c0.03031,0.24622 0.08179,0.42428 0.12034,0.66185c0.03048,0.18781 0.12034,0.36101 0.12034,0.54152c0,0.24067 0,0.36101 0,0.42118c0,0.06016 0,0.12033 0,0.1805c0,0.06017 -0.06017,0.12034 -0.06017,0.12034c-0.06017,0.06017 -0.06017,0.12034 -0.06017,0.12034c-0.06017,0.06017 -0.10184,0.07136 -0.18051,0.1805c-0.04975,0.06903 -0.24067,0.18051 -0.30084,0.18051c-0.06017,0 -0.14959,-0.1699 -0.1805,-0.30084c-0.1106,-0.46847 0.10184,-1.03406 0.1805,-1.1432c0.04976,-0.06903 0.03714,-0.12492 0.06017,-0.18051c0.03256,-0.07862 0.03714,-0.12492 0.06017,-0.18051c0.03256,-0.07861 0.06017,-0.12033 0.06017,-0.1805c0,-0.06017 -0.04255,-0.13796 0,-0.18051c0.04254,-0.04254 0.08777,-0.04172 0.12033,-0.12033c0.02303,-0.05559 0.01763,-0.0778 0.06017,-0.12034c0.04255,-0.04255 0,-0.12034 0,-0.12034c0,-0.06017 0.06017,-0.12034 0.06017,-0.1805c0,-0.06017 0.06017,-0.12034 0.06017,-0.18051c0,-0.06017 0.01762,-0.07779 0.06017,-0.12034c0.08509,-0.08509 0,-0.12033 0,-0.1805c0,-0.06017 -0.02303,-0.06475 0,-0.12034c0.03256,-0.07862 0.06017,-0.12034 0.06017,-0.12034c0,-0.06017 0.06016,-0.06017 0.06016,-0.06017c0,0 0,0 0,0.12034c0,0.18051 -0.06016,0.30084 -0.1805,0.48135c-0.12034,0.1805 -0.2615,0.34329 -0.36101,0.48135c-0.07867,0.10914 -0.20761,0.26778 -0.36102,0.42118c-0.1534,0.1534 -0.36901,0.21477 -0.60168,0.30084c-0.12618,0.04668 -0.24067,0.12034 -0.30084,0.12034c-0.12034,0 -0.18373,-0.02765 -0.30084,0c-0.13095,0.03091 -0.18373,0.03251 -0.30085,0.06016c-0.13094,0.03091 -0.23354,0.07162 -0.42118,0.18051c-0.11636,0.06753 -0.37279,0.21955 -0.60168,0.36101c-0.25591,0.15816 -0.41387,0.33053 -0.60169,0.36101c-0.11878,0.01928 -0.24067,0.06017 -0.36101,0.06017c-0.06017,0 -0.1805,0 -0.24067,0c-0.06017,0 -0.12034,0 -0.18051,0c-0.06016,0 -0.12033,0 -0.1805,0c-0.06017,0 -0.12034,0 -0.18051,0c-0.1805,0 -0.2385,0.00697 -0.42118,0.06017c-0.23818,0.06936 -0.48135,0.12034 -0.72202,0.1805c-0.24067,0.06017 -0.60013,0.18888 -0.90253,0.24068c-0.41935,0.07183 -0.72202,0.12033 -1.08303,0.1805c-0.36101,0.06017 -0.54152,0.06017 -0.72202,0.06017c-0.12034,0 -0.18051,0 -0.24068,0c-0.06016,0 -0.12033,0 -0.1805,0c-0.06017,0 -0.12034,0 -0.18051,0c-0.06017,0 -0.12033,0 -0.1805,0c-0.12034,0 -0.24068,0 -0.36101,0c-0.18051,0 -0.30085,0 -0.42118,0c-0.18051,0 -0.30085,0 -0.42118,0c-0.18051,0 -0.36102,0 -0.60169,0c-0.12034,0 -0.24067,0 -0.36101,0c-0.12034,0 -0.18051,0 -0.30084,0c-0.06017,0 -0.12034,0 -0.24068,0c-0.06017,0 -0.12033,0 -0.1805,0c-0.12034,0 -0.16206,0.02761 -0.24068,0.06017c-0.11117,0.04605 -0.19424,-0.06908 -0.36101,0c-0.07861,0.03256 -0.12034,0.06017 -0.1805,0.06017c-0.12034,0 -0.18051,0.06017 -0.30085,0.06017c-0.06016,0 -0.16206,0.0276 -0.24067,0.06016c-0.05559,0.02303 -0.06017,0 -0.12034,0c-0.06016,0 -0.12033,0 -0.1805,0c-0.06017,0 -0.06017,0 -0.12034,0c-0.06017,0 -0.06017,0 -0.12034,-0.06016c0,0 -0.01762,-0.01763 -0.06016,-0.06017c-0.04255,-0.04255 -0.12034,0 -0.12034,0c0,-0.06017 0,-0.06017 0,-0.06017c0,-0.06017 0,-0.06017 0,-0.06017c0,-0.06017 -0.04255,-0.07779 0,-0.12034c0.04254,-0.04254 0.16206,-0.0276 0.24067,-0.06016c0.11118,-0.04605 0.24068,0 0.30084,0c0.12034,0 0.18051,0 0.30085,0c0.12033,0 0.24067,0 0.30084,0c0.12034,0 0.1805,0 0.30084,0c0.06017,0 0.12034,0 0.18051,0c0.06016,0 0.07779,-0.04255 0.12033,0c0.04255,0.04254 0,0.06016 0,0.1805c0,0.06017 -0.01119,0.10184 -0.12033,0.18051c-0.06903,0.04975 -0.1699,0.14959 -0.30085,0.1805c-0.05855,0.01383 -0.1805,0 -0.30084,0.06017c0,0 -0.04172,0.02761 -0.12033,0.06017c-0.05559,0.02303 -0.12034,0 -0.18051,0.06017c0,0 -0.09273,-0.01845 -0.06017,0.06017c0.02303,0.05559 0.06475,-0.02303 0.12034,0c0.07861,0.03256 0.06017,0.06016 0.06017,0.06016c0.06016,0 0.04172,0.02761 0.12033,0.06017c0.05559,0.02303 0.07136,0.04167 0.18051,0.12034c0.06903,0.04975 0.14554,0.20571 0.24067,0.30084c0.09514,0.09514 0.18051,0.18051 0.30084,0.30084c0.06017,0.06017 0.18051,0.18051 0.24068,0.24068c0.06017,0.06017 0.1805,0.12034 0.24067,0.18051c0.06017,0.06016 0.12034,0.06016 0.18051,0.12033c0.06017,0.06017 0.12034,0.06017 0.1805,0.12034c0.06017,0.06017 0.12492,0.09731 0.18051,0.12034c0.07861,0.03256 0.12034,0.12033 0.18051,0.1805c0.06016,0.06017 0.14554,0.0252 0.24067,0.12034c0.09514,0.09513 0.16206,0.20811 0.24067,0.24067c0.05559,0.02303 0.13796,0.01763 0.18051,0.06017c0.04254,0.04255 0.06475,0.09731 0.12034,0.12034c0.07861,0.03256 0.09731,0.06475 0.12033,0.12034c0.03257,0.07861 0.16994,0.00589 0.24068,0.12033c0.03163,0.05119 0.10189,0.14795 0.1805,0.18051c0.05559,0.02303 0.12034,0.06017 0.12034,0.06017c0.12034,0.06017 0.12034,0.12034 0.24067,0.18051c0,0 0.07779,0.07779 0.12034,0.12033c0.08509,0.08509 0.10189,0.08777 0.18051,0.12034c0.05558,0.02303 0.13153,0.04167 0.24067,0.12034c0.06903,0.04975 0.13153,0.10183 0.24067,0.1805c0.06903,0.04976 0.06606,0.10978 0.18051,0.18051c0.05118,0.03163 0.14794,0.04172 0.18051,0.12034c0.02302,0.05559 0.06016,0.06016 0.12033,0.12033c0.06017,0.06017 0.07779,0.13796 0.12034,0.18051c0.04254,0.04254 0.10977,0.00589 0.18051,0.12034c0.03163,0.05118 0.0513,0.07058 0.12033,0.12033c0.10915,0.07867 0.17165,0.13076 0.24068,0.18051c0.10914,0.07867 0.17164,0.13075 0.24067,0.1805c0.10915,0.07867 0.17487,0.12656 0.24067,0.18051c0.16777,0.13754 0.25187,0.22218 0.36102,0.30084c0.06903,0.04975 0.14794,0.10189 0.1805,0.18051c0.02303,0.05559 0.06017,0.12033 0.12034,0.1805c0.06017,0.06017 0.13075,0.11148 0.18051,0.18051c0.07866,0.10914 0.09731,0.18508 0.12033,0.24067c0.03256,0.07862 0.08777,0.04173 0.12034,0.12034c0.02303,0.05559 0.06017,0.06017 0.06017,0.12034c0,0 0,0 0,0c0,0 -0.02761,-0.10189 -0.06017,-0.18051c-0.02303,-0.05559 -0.04089,-0.18206 -0.06017,-0.30084c-0.03048,-0.18781 -0.04752,-0.36573 -0.12034,-0.54152c-0.05148,-0.1243 -0.10651,-0.18211 -0.12033,-0.24067c-0.03092,-0.13094 -0.06017,-0.12034 -0.12034,-0.18051c0,0 -0.06017,0 -0.12034,0c-0.06017,0 -0.1805,0.06017 -0.24067,0.12034c-0.06017,0.06017 -0.09269,0.18373 -0.12034,0.30084c-0.03091,0.13095 -0.01762,0.19813 -0.06017,0.24068c-0.04254,0.04254 -0.06017,0 -0.12034,0c-0.06016,0 -0.12033,0 -0.1805,0c0,0 -0.06017,0 -0.06017,0c0,0 -0.04255,0.01762 0,0.06017c0.04255,0.04254 0.04172,-0.02761 0.12034,-0.06017c0.11117,-0.04605 0.1805,0 0.30084,0c0.06017,0 0.12034,0 0.12034,0c0.06017,0 0.12491,-0.02303 0.1805,0c0.07862,0.03256 0.16206,0.08777 0.24068,0.12033c0.11117,0.04606 0.19813,0.01763 0.24067,0.06017c0.04255,0.04255 0.01762,0.07779 0.06017,0.12034c0.04254,0.04255 0.06017,0 0.06017,0c0,0.06017 0,0.06017 0,0.06017c0,0 0,0.06017 0,0.06017c0,0 0,0 0,0.06017c0,0 0.12194,-0.01383 0.1805,0c0.13094,0.03091 0.12034,0.06016 0.12034,0.24067c0,0.1805 0,0.54152 0,0.78219c0,0.24067 0,0.42118 0,0.54152c0,0.1805 0,0.24067 0,0.30084c0,0.06017 0,0.12033 0,0.12033c0,0.06017 0,0.12034 0,0.12034c0,0.06017 0,0.06017 0,0.06017c0,0 0,0.06017 0,0.06017c0,0.06017 0,0.06017 0,0.12034c0,0.06017 0,0.12033 0,0.1805c0,0.06017 0,0.12034 0,0.18051c0,0.06017 0,0.12034 0,0.1805c0,0.06017 0,0.12034 0,0.18051c0,0.06017 -0.01762,0.07779 -0.06017,0.12034c-0.04254,0.04254 0,0.06016 0,0.12033c0,0.06017 0,0.12034 0,0.12034c-0.06017,0.06017 -0.03714,0.12492 -0.06017,0.18051c-0.03256,0.07861 -0.08777,0.16206 -0.12033,0.24067c-0.02303,0.05559 -0.02761,0.10189 -0.06017,0.18051c-0.02303,0.05558 0,0.12033 0,0.12033c0,0.06017 -0.06017,0.12034 -0.06017,0.18051c0,0.06017 0.01382,0.12194 0,0.1805c-0.03091,0.13095 -0.08943,0.1699 -0.12034,0.30085c-0.02765,0.11712 -0.06017,0.24067 -0.06017,0.36101c0,0.06017 -0.03714,0.18508 -0.06016,0.24067c-0.03257,0.07861 -0.03715,0.12492 -0.06017,0.18051c-0.03257,0.07861 -0.06017,0.1805 -0.06017,0.24067c0,0.06017 0,0.12034 0,0.18051c0,0.12033 -0.02969,0.23336 -0.06017,0.42118c-0.01928,0.11878 0,0.30084 0,0.36101c0,0.12033 -0.06017,0.1805 -0.06017,0.30084c0,0.12034 -0.02925,0.23007 -0.06017,0.36101c-0.01382,0.05856 -0.06016,0.24068 -0.06016,0.36102c0,0.12033 -0.02926,0.23006 -0.06017,0.361c-0.02765,0.11712 -0.02926,0.16991 -0.06017,0.30085c-0.01382,0.05855 -0.02761,0.10189 -0.06017,0.1805c-0.02302,0.05559 0,0.18051 0,0.24068c0,0.06017 -0.06017,0.12033 -0.06017,0.1805c0,0.06017 0,0.12034 -0.06017,0.18051c0,0 0,0 0,-0.12034c0,-0.1805 -0.06016,-0.30084 -0.06016,-0.48135c0,-0.1805 0,-0.24067 0,-0.30084c0,-0.06017 0,-0.12034 0,-0.18051c0,-0.06016 0,-0.06016 0,-0.12033c0,-0.06017 0,-0.12034 0,-0.12034c0,-0.06017 0,-0.12033 0,-0.12033c0,-0.06017 -0.06017,-0.06017 -0.06017,-0.12034c0,0 0,-0.06017 0,-0.06017c0,-0.06017 0,-0.06017 0,-0.06017c0,-0.06017 0,-0.06017 0,-0.12033c0,0 0,-0.06017 0,-0.06017c0,0 0,-0.06017 0,-0.06017c0,0 -0.04255,-0.0778 0,-0.12034c0.04254,-0.04255 0.06017,-0.06017 0.06017,-0.06017c0,0 0,0 0,0c0,0.12034 -0.05907,0.28352 -0.12034,0.60169c-0.03414,0.17725 0,0.42118 0,0.54151c0,0.18051 -0.06017,0.30085 -0.06017,0.48135c0,0.18051 -0.08942,0.35041 -0.12033,0.48135c-0.04148,0.17567 -0.04635,0.30245 -0.06017,0.36101c-0.03091,0.13094 -0.06017,0.12034 -0.06017,0.18051c0,0.12033 -0.04635,0.30245 -0.06017,0.36101c-0.03091,0.13094 -0.08942,0.1699 -0.12034,0.30084c-0.01382,0.05856 -0.06016,0.12034 -0.06016,0.18051c0,0.06016 -0.06017,0.12033 -0.06017,0.1805c0,0.06017 -0.06017,0.12034 -0.06017,0.24068c0,0.12033 -0.02926,0.1699 -0.06017,0.30084c-0.04147,0.17568 -0.06017,0.24067 -0.06017,0.30084c0,0.06017 -0.0276,0.10189 -0.06017,0.18051c-0.02302,0.05558 0,0.06016 0,0.12033c0,0 0,0.06017 0,0.12034c0,0 0,0.06017 0,0.06017c0,0.06017 -0.06016,0.1805 -0.06016,0.30084c0,0.12034 0.04254,0.19813 0,0.24067c-0.04255,0.04255 -0.06017,0.06017 -0.06017,0.06017c0,0.06017 0,0.12034 0,0.12034c0,0.06017 0,0.12034 0,0.18051c0,0 0,0.06017 0,0.06017c0,-0.06017 0.06017,-0.12034 0.06017,-0.12034c0.06016,-0.06017 0.06016,-0.06017 0.12033,-0.12034c0,0 0.01762,-0.07779 0.06017,-0.12034c0.04255,-0.04254 0.08777,-0.04172 0.12034,-0.12033c0.02302,-0.05559 0.06017,-0.06017 0.06017,-0.12034c0,0 0.06016,-0.06017 0.06016,-0.06017c0.06017,0 0.06475,-0.03714 0.12034,-0.06017c0.07862,-0.03256 0.12195,-0.04634 0.18051,-0.06017c0.13094,-0.03091 0.1699,-0.08942 0.30084,-0.12033c0.05856,-0.01382 0.18051,-0.06017 0.30084,-0.06017c0.06017,0 0.18051,-0.06017 0.24068,-0.06017c0.06016,0 0.12033,-0.06017 0.1805,-0.06017c0,0 0.07779,-0.01762 0.12034,-0.06017c0.04254,-0.04254 0.06475,-0.03714 0.12034,-0.06017c0.07861,-0.03256 0.10189,-0.08777 0.1805,-0.12033c0.05559,-0.02303 0.10189,-0.02761 0.18051,-0.06017c0.05559,-0.02303 0.10189,-0.02761 0.1805,-0.06017c0.05559,-0.02302 0.12034,-0.06017 0.24068,-0.06017c0.06017,0 0.10189,-0.0276 0.1805,-0.06016c0.05559,-0.02303 0.12034,-0.06017 0.18051,-0.06017c0.06017,0 0.10189,-0.08778 0.1805,-0.12034c0.05559,-0.02303 0.10974,-0.08942 0.24068,-0.12033c0.05856,-0.01383 0.11637,-0.12903 0.24067,-0.18051c0.17579,-0.07282 0.22295,-0.14117 0.36101,-0.24068c0.10915,-0.07866 0.24068,-0.12033 0.30085,-0.1805c0.06017,-0.06017 0.1805,-0.12034 0.24067,-0.18051c0.06017,-0.06017 0.13153,-0.04167 0.24067,-0.12034c0.06903,-0.04975 0.1019,-0.14794 0.18051,-0.1805c0.05559,-0.02303 0.16994,-0.00589 0.24067,-0.12034c0.03163,-0.05118 0.12034,-0.06016 0.18051,-0.12033c0.06017,-0.06017 0.13153,-0.04167 0.24067,-0.12034c0.06903,-0.04976 0.13153,-0.04167 0.24068,-0.12034c0.06903,-0.04975 0.1917,-0.10184 0.30084,-0.1805c0.06903,-0.04976 0.19916,-0.08047 0.36101,-0.18051c0.14477,-0.08947 0.36101,-0.18051 0.48135,-0.24067c0.12034,-0.06017 0.16206,-0.08778 0.24067,-0.12034c0.05559,-0.02303 0.12034,-0.06017 0.18051,-0.06017c0,0 0.01762,-0.01762 0.06017,-0.06017c0.04254,-0.04254 0.06016,0 0.12033,-0.06017c0,0 0.02761,0.01845 0.06017,-0.06016c0.02303,-0.05559 0.07779,-0.07779 0.12034,-0.12034c0.04254,-0.04254 0,-0.12034 0,-0.1805c0,0 0,-0.06017 0,-0.12034c0,0 0,-0.06017 0,-0.06017c0,0 -0.01763,0.01762 -0.06017,0.06017c-0.04255,0.04254 -0.12034,0.06017 -0.18051,0.12034c0,0 -0.01762,0.01762 -0.06017,0.06016c-0.08509,0.08509 -0.01411,0.18967 -0.06016,0.30084c-0.03257,0.07862 -0.13153,0.16201 -0.24068,0.24068c-0.06902,0.04975 -0.22898,0.08715 -0.48135,0.1805c-0.23267,0.08608 -0.48383,0.11115 -0.72202,0.18051c-0.18268,0.0532 -0.23006,0.08943 -0.36101,0.12034c-0.11712,0.02765 -0.23007,0.02926 -0.36101,0.06017c-0.17567,0.04147 -0.30406,0.03252 -0.42118,0.06017c-0.13094,0.03091 -0.18967,0.07428 -0.30084,0.12033c-0.07861,0.03256 -0.18949,0.08871 -0.24067,0.12034c-0.11445,0.07073 -0.16817,0.19375 -0.36102,0.36101c-0.22727,0.19711 -0.48134,0.36101 -0.72202,0.54152c-0.24067,0.1805 -0.43983,0.26098 -0.60168,0.36101c-0.07239,0.04473 -0.18509,0.09731 -0.24068,0.12034c-0.07861,0.03256 -0.1805,0.12033 -0.24067,0.12033c-0.06017,0 -0.1699,0.08943 -0.30084,0.12034c-0.05856,0.01382 -0.19325,0.04297 -0.36101,0.1805c-0.06581,0.05395 -0.18051,0.12034 -0.30085,0.24068c-0.06017,0.06016 -0.1805,0.1805 -0.30084,0.24067c-0.12034,0.06017 -0.16206,0.14794 -0.24067,0.18051c-0.05559,0.02302 -0.12034,0.06017 -0.12034,0.06017c-0.06017,0.06016 -0.07058,0.0513 -0.12034,0.12033c-0.07866,0.10915 -0.09731,0.12492 -0.12033,0.18051c-0.03257,0.07861 -0.0778,0.13796 -0.12034,0.1805c-0.04255,0.04255 -0.04172,0.08778 -0.12034,0.12034c-0.05559,0.02303 -0.06017,0.06017 -0.12034,0.12034c-0.06016,0.06016 -0.06016,0.12033 -0.06016,0.12033c0,0.06017 -0.06017,0.06017 -0.06017,0.12034c0,0 -0.06017,0.06017 -0.06017,0.06017c0,0 0,0.06017 0,0.06017c0,0 -0.01762,-0.04255 -0.06017,0c-0.04254,0.04254 0,0.06016 0,0.06016c-0.06017,0 -0.06017,0 -0.06017,0c0,0 -0.06017,-0.06016 -0.06017,-0.1805c0,-0.06017 -0.04605,-0.18967 0,-0.30084c0.03257,-0.07862 0.07429,-0.18967 0.12034,-0.30084c0.03256,-0.07862 0.08777,-0.16207 0.12034,-0.24068c0.02302,-0.05559 0.06017,-0.12034 0.06017,-0.18051c0,0 0.06017,-0.06016 0.06017,-0.06016c0,-0.06017 0.06016,-0.12034 0.12033,-0.18051c0,0 0,-0.06017 0.06017,-0.12034c0.06017,-0.06017 0.12034,-0.12033 0.24067,-0.24067c0.12034,-0.12034 0.22348,-0.25341 0.36102,-0.42118c0.10789,-0.13161 0.24067,-0.1805 0.36101,-0.30084c0.12034,-0.12034 0.19915,-0.14064 0.36101,-0.24068c0.07238,-0.04473 0.1805,-0.1805 0.30084,-0.24067c0.12034,-0.06017 0.22223,-0.08777 0.30084,-0.12034c0.11118,-0.04605 0.18967,-0.01412 0.30084,-0.06017c0.07862,-0.03256 0.1917,-0.10183 0.30085,-0.1805c0.06903,-0.04975 0.16829,-0.13577 0.24067,-0.1805c0.16186,-0.10003 0.28647,-0.14537 0.48135,-0.24068c0.17092,-0.0836 0.34312,-0.15291 0.54151,-0.24067c0.22688,-0.10037 0.35041,-0.1496 0.48135,-0.18051c0.05856,-0.01382 0.18509,-0.03714 0.24068,-0.06017c0.07861,-0.03256 0.12491,-0.03714 0.1805,-0.06017c0.07862,-0.03256 0.1699,-0.08942 0.30085,-0.12033c0.05855,-0.01383 0.29687,-0.12902 0.42117,-0.18051c0.17579,-0.07281 0.29372,-0.13178 0.48135,-0.24067c0.11637,-0.06753 0.29024,-0.1496 0.42118,-0.18051c0.11712,-0.02765 0.29198,-0.07058 0.36101,-0.12033c0.10915,-0.07867 0.18967,-0.07429 0.30085,-0.12034c0.07861,-0.03256 0.07779,-0.07779 0.12033,-0.12034c0.04255,-0.04254 0.13796,-0.01762 0.18051,-0.06017c0.04254,-0.04254 0.07779,-0.01762 0.12034,-0.06016c0.04254,-0.04255 0.01762,-0.0778 0.06016,-0.12034c0.04255,-0.04255 0.0778,-0.01762 0.12034,-0.06017c0.04255,-0.04254 0.01763,-0.13796 0.06017,-0.18051c0.04255,-0.04254 0.09731,-0.06475 0.12034,-0.12033c0.03256,-0.07862 0.12033,-0.06017 0.12033,-0.06017c0,0 0,0 -0.06016,0c0,0 -0.12195,-0.01382 -0.18051,0c-0.13094,0.03091 -0.15607,0.21137 -0.30084,0.30084c-0.16185,0.10004 -0.35728,0.15032 -0.72202,0.18051c-0.29982,0.02481 -0.54059,0.06503 -0.84236,0.12034c-0.36,0.06598 -0.60601,0.04159 -0.90253,0.12033c-0.36779,0.09767 -0.66711,0.22828 -0.96269,0.36101c-0.36821,0.16535 -0.60418,0.29165 -0.84236,0.36101c-0.18269,0.0532 -0.30085,0.12034 -0.42118,0.12034c-0.06017,0 -0.18212,0.04634 -0.24068,0.06017c-0.13094,0.03091 -0.25186,0.10184 -0.36101,0.18051c-0.13806,0.09951 -0.23007,0.20976 -0.36101,0.24067c-0.11712,0.02765 -0.24068,0.06017 -0.42118,0.12034c-0.18051,0.06017 -0.36559,0.09731 -0.42118,0.12033c-0.07861,0.03256 -0.12034,0.06017 -0.12034,0.06017c0,0.06017 -0.01762,0.01762 -0.06017,0.06017c-0.04254,0.04254 0,0.06017 0,0.06017c0.06017,0 0.12034,0 0.18051,0c0.06017,0 0.13796,-0.01763 0.18051,-0.06017c0.08509,-0.08509 0.10189,-0.08778 0.1805,-0.12034c0.05559,-0.02302 0.12034,0 0.12034,0c0,0.06017 0,0.18051 0,0.30084c0,0.12034 0.02302,0.18509 0,0.24068c-0.03256,0.07861 -0.07779,0.10271 -0.12034,0.06017c-0.04254,-0.04255 -0.08986,-0.1732 -0.12034,-0.36101c-0.02891,-0.17818 0,-0.48135 0,-0.66186c0,-0.12033 0,-0.1805 0,-0.1805c0,0 -0.01762,-0.04255 -0.06016,0c-0.04255,0.04254 0,0.24067 0,0.36101c0,0.12034 -0.06017,0.30084 -0.06017,0.42118c0,0.12033 -0.02761,0.16206 -0.06017,0.24067c-0.04605,0.11118 0,0.18051 0,0.24067c0,0.12034 -0.06017,0.18051 -0.06017,0.24068c0,0 0,0 0.06017,-0.18051c0.06017,-0.1805 0.21477,-0.42918 0.30084,-0.66185c0.09336,-0.25237 0.23737,-0.6029 0.48135,-1.26354c0.1781,-0.48224 0.34877,-1.08864 0.60168,-1.62455c0.22969,-0.48669 0.52323,-1.03245 0.78219,-1.50421c0.16883,-0.30755 0.44183,-0.6544 0.54152,-0.9627c0.07633,-0.23604 0.16786,-0.42589 0.24067,-0.60168c0.05149,-0.1243 0.0778,-0.19813 0.12034,-0.24067c0.04255,-0.04255 0.07779,-0.04255 0.12034,0c0.08509,0.08509 -0.05102,0.3658 -0.18051,0.60168c-0.16882,0.30755 -0.35686,0.5822 -0.54151,1.20337c-0.17485,0.58816 -0.3323,1.32909 -0.48135,2.04573c-0.10103,0.48577 -0.18051,0.90253 -0.18051,1.08303c0,0.06017 0,0.12034 0,0.06017c0,-0.1805 0.14732,-0.46965 0.24068,-0.72202c0.08607,-0.23267 0.0715,-0.35762 0.12033,-0.54152c0.07875,-0.29652 0.28729,-0.96693 0.48135,-1.56438c0.39387,-1.21258 0.64716,-1.9312 0.9627,-2.70758c0.17253,-0.42451 0.36315,-0.81253 0.54151,-1.08303c0.14053,-0.21312 0.2824,-0.32845 0.36102,-0.36101c0.05559,-0.02303 0.12924,0.07391 0.06016,0.24067c-0.09768,0.23584 -0.29286,0.54273 -0.36101,0.9627c-0.10775,0.66402 -0.21058,1.44336 -0.24067,3.4296c-0.00638,0.42113 -0.09003,1.07748 -0.12034,1.32371c-0.02941,0.23887 -0.01762,0.34338 -0.06017,0.30084c-0.04254,-0.04254 0,-0.12034 0,-0.24067c0,-0.30085 0.06755,-0.4802 0.12034,-0.84236c0.06998,-0.48002 0.06387,-0.90202 0.12034,-1.32371c0.06439,-0.4808 0.15019,-0.83681 0.1805,-1.08304c0.02941,-0.23886 0.01383,-0.35939 0,-0.30084c-0.03091,0.13095 -0.18536,0.36008 -0.24067,0.66186c-0.06598,0.35999 -0.1805,0.84236 -0.24067,1.20337c-0.06017,0.36101 -0.0246,0.78395 -0.06017,1.1432c-0.03023,0.3053 -0.07887,0.60651 -0.12034,0.78219c-0.03091,0.13094 -0.06017,0.12034 -0.06017,0.12034c-0.06017,-0.06017 -0.06017,-0.18051 -0.06017,-0.30085c0,-0.24067 0,-0.42118 0,-0.72202c0,-0.36101 -0.06016,-0.66185 -0.06016,-1.02286c0,-0.36101 0,-0.66185 0,-0.9627c0,-0.12033 0,-0.24067 0,-0.24067c-0.06017,0.24067 -0.16272,0.54239 -0.18051,0.72202c-0.03023,0.3053 -0.03774,0.48204 -0.06017,0.84236c-0.03014,0.48416 -0.05646,1.14362 -0.12033,1.68472c-0.05687,0.48174 -0.03525,0.75726 -0.12034,0.84235c-0.04255,0.04255 -0.08943,0.01061 -0.12034,-0.12033c-0.04147,-0.17568 0,-0.54152 0,-0.78219c0,-0.18051 0.03003,-0.59888 0.06017,-1.08303c0.02243,-0.36032 -0.02617,-0.90335 0,-1.32371c0.03014,-0.48416 0.0717,-0.97034 0.18051,-1.50421c0.12545,-0.61553 0.36101,-1.14321 0.54151,-1.68472c0.12034,-0.36101 0.24068,-0.72202 0.30084,-0.90253c0.06017,-0.1805 0.12034,-0.24067 0.12034,-0.24067c0,0.1805 0.02133,0.4821 0,0.78219c-0.03016,0.42438 -0.10207,0.90884 0,1.44404c0.12852,0.67388 0.3839,1.37805 0.54152,2.04573c0.14097,0.59719 0.24553,1.20244 0.30084,1.50421c0.06598,0.35999 0.15003,0.59438 0.1805,0.78219c0.00964,0.05939 -0.02481,-0.06119 0,-0.36101c0.03019,-0.36475 0.05275,-0.60247 0.12034,-1.20337c0.05422,-0.48205 0.15039,-1.14116 0.18051,-1.80506c0.02999,-0.66117 0.03457,-1.32461 0.06017,-1.68471c0.03015,-0.42439 0.01869,-0.66668 0.06016,-0.84236c0.03091,-0.13094 0.06017,-0.18051 0.06017,-0.18051c0,0.06017 0.02482,0.30187 0,0.60169c-0.03019,0.36474 -0.09573,0.84506 -0.1805,1.50421c-0.09337,0.726 -0.18051,1.44404 -0.18051,2.16606c0,0.42118 -0.06017,0.84236 -0.06017,1.08304c0,0.12034 0,0.1805 0,0.1805c0,0 -0.05303,-0.24219 -0.12034,-0.54151c-0.05442,-0.24204 -0.10125,-0.66229 -0.12033,-1.08303c-0.03012,-0.6639 -0.15042,-1.38281 -0.18051,-2.64742c-0.01861,-0.78197 0,-1.56438 0,-1.98556c0,-0.36101 0,-0.66185 0,-0.78219c0,-0.06017 0,0.12034 0,0.42118c0,0.42118 -0.03003,1.08357 0,1.92539c0.03011,0.84397 0.20212,1.56157 0.30084,2.40674c0.07711,0.6601 0.06017,1.32371 0.06017,1.9254c0,0.361 -0.09002,0.71647 -0.12033,0.96269c-0.00736,0.05972 0,0.18051 -0.06017,0.24067c0,0 -0.06017,0 -0.06017,0c0,0 0,0 0,0c0,0 -0.06017,0 -0.12034,0c0,0 -0.06017,0 -0.06017,0c-0.06016,-0.06016 -0.1144,-0.12063 -0.12033,-0.1805c-0.03023,-0.30531 -0.12034,-0.48135 -0.12034,-0.72202c0,-0.24068 -0.04147,-0.42601 0,-0.60169c0.03091,-0.13094 0.08777,-0.22223 0.12034,-0.30084c0.04605,-0.11118 -0.04255,-0.19813 0,-0.24068c0.04254,-0.04254 0.06016,0 0.06016,0c0,0 0.02986,0.11479 0.06017,0.36102c0.02206,0.17915 0.03653,0.43175 0.18051,0.72202c0.1559,0.3143 0.45429,0.64026 0.60168,0.90253c0.15875,0.28246 0.22223,0.44878 0.30085,0.48134c0.05558,0.02303 0.07779,0.10272 0.12033,0.06017c0.12764,-0.12764 0,-0.36101 0,-0.66185c0,-0.24068 0,-0.66186 0,-0.9627c0,-0.30084 0.06017,-0.66185 0.12034,-1.02286c0.06017,-0.36101 0.03212,-0.72784 0.12034,-1.08304c0.04586,-0.18465 0.15027,-0.47688 0.1805,-0.78218c0.02372,-0.23951 0.06017,-0.42118 0.06017,-0.54152c0,-0.12034 0,-0.18051 0,-0.18051c0,-0.06017 0,-0.12033 0,-0.12033c0.06017,0 0.06017,0.12033 0.06017,0.36101c0,0.36101 0,0.72202 0,1.20337c0,0.60168 0.1028,1.08555 0.1805,1.56438c0.04915,0.30283 0.09444,0.54952 0.18051,0.78219c0.04668,0.12618 0.06017,0.1805 0.12034,0.30084c0,0 0,0.06017 0,0.06017c0,0.06016 0.06017,0.06016 0.06017,0.06016c0,-0.06016 0,-0.24067 0,-0.54151c0,-0.24067 0,-0.54152 0,-0.9627c0,-0.30084 -0.09015,-0.65812 -0.12034,-1.02286c-0.01985,-0.23985 -0.06017,-0.72202 -0.06017,-0.90253c0,-0.1805 0,-0.36101 0,-0.54151c0,-0.18051 -0.02765,-0.30407 0,-0.42118c0.03091,-0.13094 0.06017,-0.24068 0.06017,-0.36101c0,-0.12034 0.06017,-0.30085 0.06017,-0.42118c0,-0.12034 0,-0.24068 0,-0.42118c0,-0.12034 0,-0.24068 0,-0.30085c0,-0.06016 0.02302,-0.12491 0,-0.1805c-0.03257,-0.07862 -0.06017,-0.06017 -0.12034,-0.06017c0,0 -0.06017,0 -0.12034,0c0,0 -0.08537,0.08537 -0.1805,0.18051c-0.09514,0.09513 -0.18051,0.12033 -0.24068,0.1805c0,0 -0.01762,0.01762 -0.06017,0.06017c-0.04254,0.04254 -0.12033,0.06017 -0.12033,0.12034c0,0.06016 0,0.12033 0,0.1805c0,0.06017 0.06017,0.18051 0.06017,0.24068c0,0.06017 0.06016,0.06017 0.06016,0.12033c0,0 0.06017,0 0.06017,0c0,0 0.00964,-0.00077 0,-0.06016c-0.03048,-0.18782 -0.06017,-0.36102 -0.06017,-0.60169c0,-0.18051 0.00735,-0.4818 0,-0.54151c-0.03031,-0.24623 -0.12033,-0.36102 -0.1805,-0.42119c-0.06017,-0.06016 -0.12034,-0.12033 -0.18051,-0.12033c-0.06017,0 -0.12491,-0.02303 -0.1805,0c-0.07862,0.03256 -0.12034,0.12033 -0.18051,0.1805c-0.06017,0.06017 -0.10189,0.08778 -0.1805,0.12034c-0.05559,0.02303 -0.10974,0.02926 -0.24068,0.06017c-0.11712,0.02765 -0.35705,0.06885 -0.48135,0.12034c-0.17578,0.07281 -0.31125,0.11147 -0.36101,0.1805c-0.07866,0.10915 -0.23357,0.36539 -0.42118,0.66186c-0.23202,0.36663 -0.52491,0.73542 -0.72202,0.96269c-0.22301,0.25713 -0.36101,0.48135 -0.54151,0.66186c-0.12034,0.12033 -0.24068,0.24067 -0.36102,0.36101c-0.12033,0.12033 -0.15748,0.12491 -0.1805,0.1805c-0.03257,0.07862 -0.13076,0.11148 -0.18051,0.18051c-0.07867,0.10914 -0.12034,0.12033 -0.1805,0.24067c-0.06017,0.12034 -0.18051,0.30085 -0.30085,0.48135c-0.12033,0.18051 -0.20811,0.22223 -0.24067,0.30084c-0.02303,0.05559 0,0.06017 0,0.12034c0,0.06017 0,0.06017 0,0.12033c0,0 0,0.06017 0,0.06017c0,0.06017 -0.04254,0.13797 0,0.18051c0.04255,0.04255 0.06017,0.06017 0.06017,0.12034c0,0 0.06017,0.06017 0.06017,0.12033c0,0 0,0.06017 0,0.12034c0,0.06017 0,0.12034 0,0.18051c0,0 0,0.06017 0,0.06017c0,0 0.04752,-0.00472 0.12033,-0.18051c0.05149,-0.1243 0.12034,-0.30084 0.18051,-0.54152c0.06017,-0.24067 0.15032,-0.47761 0.18051,-0.84235c0.01985,-0.23986 0.04083,-0.489 0.12033,-0.66186c0.1466,-0.31874 0.31095,-0.47656 0.42118,-0.72202c0.13274,-0.29558 0.2102,-0.47404 0.24068,-0.66186c0.02891,-0.17817 0.08986,-0.41387 0.12033,-0.60168c0.02892,-0.17818 0.03126,-0.36334 0.06017,-0.54152c0.03048,-0.18781 0.12034,-0.30084 0.12034,-0.42118c0,-0.1805 0.06017,-0.30084 0.12034,-0.48134c0.06016,-0.18051 0.13178,-0.41405 0.24067,-0.60169c0.13506,-0.23273 0.22347,-0.43391 0.36101,-0.60168c0.16184,-0.19742 0.36534,-0.3582 0.48135,-0.54152c0.18761,-0.29646 0.32363,-0.53141 0.42118,-0.78219c0.1588,-0.40824 0.26144,-0.85301 0.36101,-1.1432c0.08733,-0.25452 0.21763,-0.58647 0.30084,-0.84236c0.11318,-0.34805 0.18051,-0.72202 0.24068,-1.02286c0.06017,-0.30085 0.15019,-0.53597 0.1805,-0.78219c0.02206,-0.17916 0.01412,-0.37018 0.06017,-0.48135c0.03256,-0.07862 0.10562,-0.24862 0.24068,-0.48135c0.10888,-0.18763 0.18918,-0.29688 0.24067,-0.42118c0.07281,-0.17579 0.1805,-0.30084 0.24067,-0.42118c0.06017,-0.12034 0.07779,-0.13796 0.12034,-0.18051c0.04255,-0.04254 -0.01845,-0.08777 0.06017,-0.12033c0.05559,-0.02303 0.06017,0 0.06017,0.06017c0,0.12033 -0.08986,0.3537 -0.12034,0.54151c-0.02891,0.17818 -0.06017,0.30084 -0.06017,0.48135c0,0.24067 0,0.48135 0,0.72202c0,0.18051 0.02926,0.41058 0.06017,0.54152c0.02765,0.11711 0.03252,0.24389 0.06017,0.36101c0.03091,0.13094 0.04546,0.24157 0.06017,0.36101c0.03031,0.24622 0.06016,0.72202 0.06016,1.26354c0,0.54151 0.06099,0.91415 -0.06016,1.38387c-0.08093,0.31375 -0.18051,0.60169 -0.24068,0.84236c-0.06017,0.24068 -0.11114,0.42367 -0.1805,0.66186c-0.0532,0.18268 -0.09003,0.35546 -0.12034,0.60168c-0.02206,0.17915 0,0.42118 0,0.54152c0,0.1805 0,0.30084 0,0.36101c0,0.06017 -0.04255,0.07779 0,0.12034c0.04254,0.04254 0.06017,0 0.06017,0c0.06017,0 0.06017,0 0.06017,0c0.06016,0 0.06016,0 0.12033,0c0,0 0.06017,0 0.12034,-0.18051c0.06017,-0.18051 0.15019,-0.41563 0.18051,-0.66185c0.02205,-0.17916 0,-0.30085 0,-0.36102c0,-0.12033 0,-0.1805 0,-0.30084c0,-0.06016 0,-0.12033 0,-0.1805c0,-0.06017 0,-0.18051 0,-0.24068c0,-0.06017 -0.02765,-0.18372 0,-0.30084c0.03091,-0.13094 0.06885,-0.29688 0.12033,-0.42118c0.07282,-0.17578 0.08943,-0.29023 0.12034,-0.42118c0.02765,-0.11712 0.03125,-0.243 0.06017,-0.42118c0.03048,-0.18781 0.15003,-0.3537 0.1805,-0.54151c0.02892,-0.17818 0.02342,-0.36327 0.06017,-0.66186c0.03031,-0.24622 0.06017,-0.42118 0.06017,-0.60168c0,-0.12034 -0.00964,-0.24145 0,-0.30084c0.03048,-0.18782 0.04238,-0.36189 0.06017,-0.54152c0.06046,-0.61061 0.15286,-0.72524 0.1805,-0.84236c0.03091,-0.13094 0.06017,-0.18051 0.06017,-0.24067c0,-0.12034 0,-0.12034 0,-0.24068c0,0 0,-0.06016 0,-0.12033c0,0 0,-0.06017 0,-0.06017c0,0 0,0.12033 -0.06017,0.24067c-0.06016,0.12034 -0.13796,0.13796 -0.1805,0.18051c-0.04255,0.04254 -0.06017,0.12033 -0.12034,0.30084c-0.06017,0.18051 -0.06017,0.54151 -0.06017,1.02286c0,0.48135 -0.03676,0.84462 0,1.1432c0.03031,0.24623 0.06017,0.48135 0.06017,0.66186c0,0.1805 0.02969,0.29353 0.06017,0.48135c0.01927,0.11878 0,0.24067 0,0.36101c0,0.06017 0.06017,0.1805 0.06017,0.30084c0,0.06017 0,0.12034 0.06017,0.1805c0,0 0,0.06017 0,0.06017c0,0 0.06016,0 0.06016,0c0,0 0.03077,-0.1823 0.06017,-0.42118c0.03031,-0.24622 0.08048,-0.37966 0.18051,-0.54151c0.04473,-0.07238 0.06017,-0.18051 0.06017,-0.24068c0,-0.06016 0,-0.12033 0,-0.24067c0,-0.06017 0,-0.18051 0,-0.30084c0,-0.18051 -0.02926,-0.29024 -0.06017,-0.42118c-0.04147,-0.17568 -0.06017,-0.30084 -0.06017,-0.42118c0,-0.18051 -0.06017,-0.24068 -0.06017,-0.42118c0,-0.12034 0,-0.24067 0,-0.36101c0,-0.12034 0,-0.18051 0,-0.30085c0,-0.06016 0,-0.12033 0,-0.24067c0,-0.12034 0,-0.24067 0,-0.36101c0,-0.06017 0,-0.12034 0,-0.18051c0,0 0,-0.06016 0,-0.06016c0,-0.06017 0,-0.12034 0,-0.12034c0,-0.06017 0,-0.06017 0,-0.12034c0,0 0,-0.06017 0.06017,-0.06017c0,0 0,0 0,-0.06016c0,0 0,0 0,-0.06017c0,0 0,-0.06017 0,-0.06017c-0.06017,0 -0.09003,-0.00555 -0.12034,0.24067c-0.02205,0.17916 -0.10796,0.5417 -0.12033,0.9627c-0.0301,1.02419 -0.12034,1.68472 -0.12034,2.16606c0,0.36102 -0.06017,0.72203 -0.06017,1.02287c0,0.24067 -0.06017,0.48135 -0.06017,0.66185c0,0.18051 0.04147,0.36584 0,0.54152c-0.03091,0.13094 -0.08942,0.29023 -0.12034,0.42118c-0.02764,0.11712 0,0.24067 -0.06016,0.36101c-0.06017,0.12034 -0.12902,0.17654 -0.18051,0.30084c-0.07281,0.17579 -0.1805,0.36101 -0.24067,0.54152c-0.06017,0.1805 -0.14117,0.34329 -0.24068,0.48135c-0.07867,0.10914 -0.1295,0.19462 -0.24067,0.24067c-0.07862,0.03256 -0.12034,0.06017 -0.18051,0.06017c-0.12033,0 -0.1805,0 -0.42118,0c-0.12033,0 -0.30084,0 -0.36101,-0.12034c-0.06017,-0.12034 -0.06017,-0.30084 -0.06017,-0.60169c0,-0.30084 0,-0.54151 0.12034,-0.84235c0.12034,-0.30085 0.08014,-0.61549 0.18051,-0.84236c0.08776,-0.1984 0.10183,-0.31204 0.1805,-0.42118c0.09951,-0.13806 0.20811,-0.16206 0.24068,-0.24068c0.02302,-0.05559 0.01927,0.00156 0,0.12034c-0.03048,0.18781 -0.19062,0.47656 -0.30085,0.72202c-0.13273,0.29558 -0.17131,0.544 -0.24067,0.78219c-0.0532,0.18268 -0.12034,0.24068 -0.12034,0.24068c0,0 0,-0.30085 0,-0.54152c0,-0.36101 0.08015,-0.67565 0.18051,-0.90253c0.08776,-0.19839 0.19445,-0.47699 0.30084,-0.84236c0.13872,-0.47637 0.2221,-1.02718 0.30084,-1.3237c0.09767,-0.3678 0.10184,-0.55271 0.18051,-0.66186c0.04975,-0.06903 0.06017,-0.12034 0.12034,-0.1805c0,0 0,0 0.06016,0c0,0 0.01383,0.00161 0,0.06016c-0.03091,0.13095 -0.19917,0.22377 -0.36101,0.42118c-0.13753,0.16777 -0.28123,0.39995 -0.36101,0.60169c-0.13459,0.34034 -0.06017,0.72202 -0.06017,1.08303c0,0.42118 0,0.90253 0,1.08304c0,0.12033 0,0.1805 0,0.1805c0,-0.1805 0.00575,-0.47998 0.06017,-0.72202c0.06731,-0.29933 0.11506,-0.60353 0.18051,-0.78219c0.11144,-0.30425 0.21491,-0.71225 0.42118,-1.50421c0.21713,-0.83367 0.24067,-1.38388 0.24067,-1.74489c0,-0.24067 0,-0.30084 0,-0.30084c0,0 0.00964,0.06095 0,0.12034c-0.03048,0.18781 -0.12608,0.35964 -0.18051,0.60168c-0.0673,0.29933 -0.09034,0.84304 -0.12033,1.50421c-0.03012,0.6639 -0.10868,1.38571 -0.18051,1.80506c-0.0518,0.30239 -0.18939,0.65845 -0.30084,0.96269c-0.13089,0.35732 -0.20527,0.56583 -0.42118,0.84236c-0.1571,0.20121 -0.28423,0.37442 -0.48135,0.60169c-0.22301,0.25713 -0.42118,0.36101 -0.60168,0.54152c-0.12034,0.12033 -0.24068,0.1805 -0.30084,0.24067c0,0 -0.0778,0.10271 -0.12034,0.06017c-0.12764,-0.12764 -0.04173,-0.42409 0,-0.72203c0.06075,-0.4338 0.21538,-0.79163 0.36101,-1.1432c0.15446,-0.3729 0.22595,-0.60962 0.36101,-0.84236c0.10889,-0.18763 0.24067,-0.36101 0.30084,-0.42117c0.06017,-0.06017 0.06017,-0.12034 0.12034,-0.12034c0.06017,0 0.08943,-0.01061 0.12034,0.12034c0.02764,0.11711 -0.00433,0.35819 -0.12034,0.54151c-0.18761,0.29646 -0.41062,0.66555 -0.54151,1.02287c-0.11145,0.30424 -0.24068,0.66185 -0.36102,0.90252c-0.06017,0.12034 -0.12033,0.18051 -0.12033,0.18051c-0.06017,0 -0.09015,-0.05644 -0.12034,-0.42118c-0.03474,-0.41975 0.30084,-0.84236 0.48135,-1.02287c0.12033,-0.12033 0.1805,-0.24067 0.24067,-0.30084c0.06017,-0.06017 0.12034,-0.12033 0.12034,-0.12033c-0.18051,0 -0.37375,0.04296 -0.54152,0.1805c-0.19741,0.16184 -0.32031,0.27197 -0.42118,0.36101c-0.16263,0.14357 -0.21019,0.29354 -0.24067,0.48135c-0.02891,0.17817 -0.05303,0.4227 -0.12034,0.72202c-0.05442,0.24204 -0.16578,0.54946 -0.30084,0.78219c-0.10889,0.18764 -0.20976,0.29024 -0.24067,0.42118c-0.01383,0.05856 -0.01763,0.07779 -0.06017,0.12034c-0.04255,0.04254 -0.08943,0.04956 -0.12034,0.1805c-0.01382,0.05856 -0.08777,0.16207 -0.12034,0.24068c-0.02302,0.05559 -0.07779,0.07779 -0.12033,0.12034c-0.04255,0.04254 -0.01763,0.07779 -0.06017,0.12033c-0.04255,0.04255 -0.08986,0.00731 -0.12034,-0.1805c-0.03855,-0.23757 0,-0.54152 0,-0.78219c0,-0.36101 0.02969,-0.59438 0.06017,-0.78219c0.02891,-0.17818 0.06017,-0.30084 0.06017,-0.48135c0,-0.06017 0.06017,-0.18051 0.06017,-0.30084c0,-0.06017 0.01762,-0.07779 0.06016,-0.12034c0.04255,-0.04254 0.06017,-0.06017 0.06017,-0.06017c0,0 0,0 0,0.18051c0,0.36101 -0.07502,0.65969 -0.12034,1.02286c-0.08971,0.71895 -0.06016,1.26354 -0.06016,1.68472c0,0.36101 0,0.54152 0,0.60169c0,0 0,-0.06017 0,-0.30085c0,-0.42118 0.02266,-0.71524 0.12033,-1.08303c0.07875,-0.29652 0.18051,-0.66186 0.36101,-1.32371c0.18051,-0.66185 0.43272,-1.51965 0.72203,-2.34657c0.2583,-0.73831 0.42013,-1.29118 0.66185,-1.74489c0.24337,-0.4568 0.5959,-0.96662 0.84236,-1.3237c0.29401,-0.42598 0.57276,-0.69544 0.72202,-0.90253c0.07867,-0.10915 0.12034,-0.24067 0.18051,-0.36101c0.06017,-0.12034 0.06017,-0.24068 0.06017,-0.36101c0,-0.06017 0,-0.18051 0,-0.24068c0,-0.12033 0.06907,-0.19424 0,-0.36101c-0.03257,-0.07861 -0.16206,-0.14794 -0.24068,-0.1805c-0.11118,-0.04606 -0.18051,0 -0.30084,0c-0.12034,0 -0.19481,0.17635 -0.24067,0.36101c-0.08823,0.3552 -0.03126,0.60401 -0.06017,0.78219c-0.03048,0.18781 -0.04777,0.36627 -0.18051,0.66185c-0.33069,0.7364 -0.58733,1.38656 -0.66185,1.74489c-0.05052,0.24288 -0.12034,0.42118 -0.12034,0.60168c0,0.12034 0,0.18051 -0.06017,0.24068c0,0 -0.04546,-0.00091 -0.06017,-0.12034c-0.03031,-0.24622 -0.13275,-0.66923 -0.06017,-1.02287c0.09214,-0.44887 0.32402,-0.7444 0.48135,-0.96269c0.14926,-0.20709 0.24068,-0.36101 0.36101,-0.48135c0.06017,-0.06017 0.06017,-0.12034 0.06017,-0.12034c0,-0.06016 -0.06932,-0.10621 -0.1805,-0.06016c-0.15723,0.06512 -0.34543,0.40475 -0.48135,0.84235c-0.091,0.293 -0.15915,0.72872 -0.30084,1.14321c-0.20963,0.61319 -0.55339,1.2572 -0.90253,1.92539c-0.18692,0.35773 -0.34629,0.79013 -0.48135,1.02286c-0.10889,0.18764 -0.13445,0.31 -0.1805,0.42118c-0.03257,0.07862 -0.06017,0.06017 -0.12034,0.12034c0,0 0,0 -0.06017,0c-0.06017,0 -0.12034,-0.18051 -0.12034,-0.54152c0,-0.48135 0,-0.96269 0.12034,-1.44404c0.12034,-0.48135 0.29418,-0.90482 0.42118,-1.26354c0.17157,-0.4846 0.40822,-0.9942 0.72202,-1.56438c0.28572,-0.51916 0.60169,-1.08303 0.84236,-1.32371c0.18051,-0.1805 0.31358,-0.28364 0.48135,-0.42118c0.0658,-0.05394 0.12034,-0.12033 0.12034,-0.1805c0,-0.06017 0,-0.12034 0,-0.12034c0,0.06017 0,0.12034 0,0.24067c0,0 0,0 -0.06017,0c-0.18051,0 -0.37246,0.05305 -0.48135,0.24068c-0.13506,0.23273 -0.1968,0.59588 -0.36101,1.08303c-0.20065,0.59527 -0.28114,0.88499 -0.42118,1.26354c-0.08607,0.23267 -0.18051,0.48135 -0.24067,0.54152c0,0 -0.02761,0.04172 -0.06017,0.12033c-0.02303,0.05559 -0.0187,0.18534 -0.06017,0.36101c-0.03091,0.13095 -0.06017,0.30085 -0.06017,0.42118c0,0.12034 0,0.18051 -0.06017,0.18051c0,0 -0.01762,0.04254 -0.06017,0c-0.08509,-0.08509 -0.06424,-0.30958 0,-0.54152c0.09366,-0.33811 0.40034,-0.54802 0.72203,-1.26353c0.17962,-0.39952 0.3092,-0.91853 0.48134,-1.38388c0.18672,-0.50473 0.47424,-0.96707 0.66186,-1.26354c0.11601,-0.18331 0.1805,-0.30084 0.1805,-0.30084c0.06017,0 0.06017,0 0.06017,0c-0.06017,0 -0.12033,0 -0.1805,0c-0.12034,0 -0.38581,-0.06206 -0.60169,0.06017c-0.07405,0.04192 -0.16206,0.08777 -0.24067,0.12034c-0.05559,0.02302 -0.1699,0.02925 -0.30085,0.06016c-0.05855,0.01383 -0.1805,0 -0.30084,0c-0.1805,0 -0.3537,-0.02969 -0.54151,-0.06016c-0.17818,-0.02892 -0.54152,0 -0.72203,0c-0.24067,0 -0.42117,0 -0.60168,0.06016c-0.18051,0.06017 -0.31203,0.10184 -0.42118,0.18051c-0.06903,0.04975 -0.1699,0.14959 -0.30084,0.18051c-0.05856,0.01382 -0.1732,0.08986 -0.36101,0.12033c-0.17818,0.02892 -0.78219,0 -1.32371,0c-0.30084,0 -0.60169,0 -0.84236,0c-0.24067,0 -0.36101,0 -0.48135,0c-0.06017,0 -0.12034,0 -0.1805,0c-0.06017,0 -0.12034,0.06017 -0.18051,0.06017c-0.06017,0 -0.12034,0.06017 -0.24067,0.06017c-0.12034,0 -0.30085,0 -0.36101,0c-0.12034,0 -0.24068,0 -0.30085,0c-0.12033,0 -0.24067,0 -0.30084,0c-0.12034,0 -0.1805,0 -0.24067,0c-0.06017,0 -0.12034,0 -0.18051,0c-0.06017,0 -0.12034,0.06017 -0.24067,0.06017c-0.06017,0 -0.10974,0.02926 -0.24068,0.06017c-0.11712,0.02764 -0.1805,0 -0.1805,0c-0.06017,0 -0.12034,0 -0.18051,0c-0.06017,0 -0.06017,0 -0.06017,0c0.06017,0 0.18051,0 0.30085,0c0.12033,0 0.30084,0.12033 0.42118,0.1805c0.12033,0.06017 0.1992,0.21269 0.30084,0.30084c0.14374,0.12467 0.43391,0.22348 0.60168,0.36102c0.19742,0.16184 0.36101,0.36101 0.54152,0.54151c0.12034,0.12034 0.19462,0.24983 0.24067,0.36101c0.03257,0.07862 0.12034,0.12034 0.12034,0.18051c0,0.06017 0.01762,0.07779 0.06017,0.12034c0.04254,0.04254 0.1147,0.06639 0.1805,0.12033c0.16777,0.13754 0.33443,0.33209 0.54152,0.48135c0.21829,0.15734 0.42118,0.30084 0.60169,0.42118c0.1805,0.12034 0.30556,0.16786 0.48134,0.24067c0.1243,0.05149 0.1917,0.16201 0.30085,0.24068c0.13805,0.09951 0.24067,0.1805 0.30084,0.24067c0.06017,0.06017 0.10189,0.14794 0.1805,0.18051c0.05559,0.02302 0.06178,0.04634 0.12034,0.06017c0.13094,0.03091 0.1699,0.08942 0.30084,0.12033c0.05856,0.01383 0.12034,0.06017 0.18051,0.06017c0.06017,0 0.12034,0 0.12034,0c0.06016,0 0.12033,0 0.1805,0c0.12034,0 0.18051,-0.06017 0.24068,-0.06017c0,0 0.06016,0 0.06016,0.06017c0,0.06017 0.06017,0.12034 0.06017,0.18051c0,0.06017 -0.01844,0.20811 0.06017,0.24067c0.05559,0.02303 0.06017,0.06017 0.12034,0.06017c0,0 0,0 0,0c0.06017,0 0.06017,0 0.06017,0c0,0 0.01041,0.00886 0.06016,-0.06017c0.07867,-0.10914 0.08179,-0.24378 0.12034,-0.48135c0.06096,-0.37562 0.21539,-0.8518 0.36101,-1.20337c0.10297,-0.2486 0.19183,-0.50582 0.42118,-0.90252c0.15058,-0.26045 0.28365,-0.49409 0.42118,-0.66186c0.16184,-0.19741 0.26588,-0.32604 0.36101,-0.42118c0.09514,-0.09513 0.12034,-0.1805 0.18051,-0.30084c0.06017,-0.12034 0.06017,-0.12034 0.12034,-0.18051c0,0 0,0 0,-0.06016c0,0 0.04254,-0.01763 0,-0.06017c-0.04255,-0.04255 -0.18051,0 -0.30085,-0.06017c-0.12033,-0.06017 -0.23007,-0.14959 -0.36101,-0.1805c-0.05856,-0.01383 -0.1805,0 -0.24067,0c-0.12034,0 -0.1699,0.14959 -0.30084,0.1805c-0.11712,0.02765 -0.30085,0 -0.42118,0c-0.12034,0 -0.24068,0 -0.36102,0c-0.06016,0 -0.1805,0 -0.24067,0c-0.12034,0 -0.1805,0 -0.36101,0c-0.12034,0 -0.30084,0 -0.54152,0c-0.1805,0 -0.36745,0.05529 -0.60168,0c-0.13094,-0.03091 -0.54377,-0.14375 -0.84236,-0.1805c-0.24622,-0.03032 -0.48135,-0.06017 -0.72202,-0.06017c-0.12034,0 -0.1917,-0.0185 -0.30085,0.06017c-0.06902,0.04975 -0.12033,0.12033 -0.1805,0.1805c-0.06017,0.06017 -0.18212,0.10651 -0.24067,0.12034c-0.13095,0.03091 -0.1917,0.10184 -0.30085,0.1805c-0.06903,0.04976 -0.12033,0.12034 -0.12033,0.12034c0.06016,0 0.1805,0 0.1805,0c0.06017,0 0.12034,0 0.18051,0c0.12033,0 0.28989,0.07382 0.66185,0.36101c0.40969,0.31632 0.84236,0.72202 1.08303,0.9627c0.24068,0.24067 0.35606,0.38429 0.42118,0.54151c0.02303,0.05559 0.02761,0.10189 0.06017,0.18051c0.02303,0.05559 0.12034,0.18051 0.24068,0.30084c0.12033,0.12034 0.29353,0.2102 0.48135,0.24067c0.17817,0.02892 0.30406,0.02765 0.42117,0c0.13095,-0.03091 0.25236,-0.29413 0.42118,-0.60168c0.12949,-0.23588 0.27936,-0.5787 0.48135,-0.9627c0.15085,-0.28676 0.32297,-0.57544 0.54152,-0.78219c0.1576,-0.14908 0.42279,-0.22685 0.48135,-0.24067c0.13094,-0.03091 0.25932,-0.08047 0.42118,-0.18051c0.14476,-0.08947 0.22629,-0.26569 0.42117,-0.36101c0.17093,-0.08359 0.41232,-0.25109 0.48135,-0.30084c0.10915,-0.07867 0.13796,-0.01762 0.18051,-0.06017c0.04254,-0.04254 0.06017,-0.06017 0.06017,-0.06017c0,-0.06016 -0.12151,-0.03645 -0.36101,-0.06016c-0.30531,-0.03024 -0.60169,-0.06017 -0.84236,-0.06017c-0.24068,0 -0.54152,0 -0.84236,0.06017c-0.30084,0.06016 -0.54152,0.06016 -0.78219,0.06016c-0.18051,0 -0.42576,-0.02302 -0.48135,0c-0.07862,0.03257 -0.12034,0.06017 -0.12034,0.12034c0,0 -0.01762,0.10272 -0.06017,0.06017c-0.04254,-0.04254 0.11638,-0.12902 0.24068,-0.18051c0.17578,-0.07281 0.48135,-0.06016 0.78219,-0.06016c0.42118,0 0.76832,0.08369 0.90253,0.30084c0.10003,0.16185 0.12033,0.36101 0.12033,0.54151c0,0.12034 -0.08537,0.20571 -0.1805,0.30085c-0.09514,0.09513 -0.1732,0.15002 -0.36101,0.1805c-0.17818,0.02892 -0.54152,0 -1.02287,0c-0.54151,0 -1.20337,0 -1.86522,0c-0.42118,0 -0.66185,0 -0.78219,0c-0.12034,0 -0.12034,0 -0.12034,0c0.12034,-0.06017 0.23694,-0.15032 0.60169,-0.1805c0.41974,-0.03474 0.97235,-0.08295 1.3237,0c0.39283,0.09273 0.67331,0.35388 0.78219,0.54151c0.13506,0.23273 0.18051,0.36101 0.18051,0.42118c0,0.12034 -0.05131,0.19092 -0.12034,0.24068c-0.10914,0.07866 -0.16206,0.08777 -0.24067,0.12033c-0.11118,0.04605 -0.25187,0.0185 -0.36101,-0.06017c-0.13806,-0.0995 -0.22295,-0.2615 -0.36101,-0.36101c-0.10915,-0.07866 -0.12034,-0.12033 -0.18051,-0.1805c-0.06017,-0.06017 -0.12034,-0.12034 -0.18051,-0.18051c-0.06017,-0.06017 -0.12033,-0.1805 -0.12033,-0.30084c0,-0.06017 0,-0.06017 0.06016,-0.06017c0.18051,0 0.27037,0.11303 0.30085,0.30084c0.02891,0.17818 0,0.36102 0,0.66186c0,0.54151 0,0.78219 0,1.08303c0,0.24067 0,0.42118 0,0.54152c0,0.06016 0.02302,0.05559 0,0c-0.09769,-0.23585 -0.24068,-0.42118 -0.30085,-0.72203c-0.06016,-0.30084 -0.12033,-0.60168 -0.12033,-0.84236c0,-0.1805 -0.10813,-0.37644 -0.18051,-0.42117c-0.16185,-0.10004 -0.42118,-0.06017 -0.72202,-0.06017c-0.24067,0 -0.54152,0 -0.72202,0c-0.12034,0 -0.18051,0 -0.24068,0.06017c0,0 -0.06016,0.06016 -0.06016,0.06016c0,0.06017 -0.04255,0.0778 0,0.12034c0.04254,0.04255 0.30084,0.06017 0.48134,0.12034c0.18051,0.06017 0.42118,0.12034 0.60169,0.1805c0.1805,0.06017 0.31203,0.04167 0.42118,0.12034c0.06903,0.04975 0.20811,0.16206 0.24067,0.24068c0.04605,0.11117 0.06017,0.1805 0.06017,0.24067c0,0.06017 0.01845,0.14794 -0.06017,0.18051c-0.22235,0.0921 -0.45766,-0.15337 -0.78219,-0.36102c-0.33998,-0.21753 -0.70086,-0.44684 -0.96269,-0.78219c-0.21591,-0.27653 -0.39087,-0.59613 -0.42118,-0.84235c-0.00736,-0.05972 -0.06017,-0.12034 0,0c0.06016,0.12033 0.11297,0.24464 0.1805,0.36101c0.10889,0.18763 0.25312,0.4099 0.36101,0.54151c0.13754,0.16777 0.24068,0.36101 0.30085,0.48135c0.06016,0.12034 0.07428,0.18967 0.12033,0.30084c0.03257,0.07862 0.04635,0.18212 0.06017,0.24068c0.03091,0.13094 0.08537,0.26587 0.18051,0.36101c0.09513,0.09513 0.24067,0.12033 0.30084,0.12033c0.12034,0 0.295,-0.01348 0.42118,-0.06016c0.23267,-0.08607 0.49663,-0.14183 0.84236,-0.30084c0.31874,-0.14661 0.7958,-0.3862 1.1432,-0.54152c0.44285,-0.198 0.72202,-0.42118 1.02286,-0.66186c0.30085,-0.24067 0.51944,-0.49326 0.72203,-0.84235c0.21777,-0.37527 0.75375,-1.18237 1.1432,-1.80506c0.32848,-0.52521 0.55329,-0.95618 0.78219,-1.38387c0.12697,-0.23725 0.1805,-0.42118 0.24067,-0.54152c0.06017,-0.12034 0.06017,-0.24067 0.12034,-0.36101c0.06017,-0.12034 0.11764,-0.15338 0.1805,-0.36101c0.03488,-0.11518 0.06017,-0.30085 0.12034,-0.48135c0.06017,-0.18051 0.19985,-0.53003 0.30084,-0.72202c0.15085,-0.28676 0.29996,-0.63347 0.42118,-0.9627c0.12646,-0.34345 0.1794,-0.58435 0.24068,-0.90253c0.04551,-0.23633 0.08942,-0.3504 0.12033,-0.48134c0.02765,-0.11712 0.06017,-0.18051 0.12034,-0.30085c0,0 0.06017,-0.06017 0.12034,-0.12033c0.06017,-0.06017 0.13796,-0.0778 0.1805,-0.12034c0.04255,-0.04255 0.04173,-0.08777 0.12034,-0.12034c0.05559,-0.02302 0.18051,-0.06017 0.24068,-0.06017c0,0 -0.00161,-0.01382 -0.06017,0c-0.13094,0.03091 -0.25934,0.1636 -0.42118,0.36102c-0.13754,0.16776 -0.30626,0.60111 -0.36101,1.1432c-0.06679,0.66121 -0.12034,1.3237 -0.18051,1.92539c-0.06017,0.60168 -0.15275,1.19717 -0.24067,1.74488c-0.09584,0.59705 -0.17139,1.14592 -0.30084,1.56438c-0.11247,0.36355 -0.26929,0.71372 -0.36102,1.08304c-0.08822,0.3552 -0.20103,0.71336 -0.42118,1.26354c-0.33229,0.83045 -0.46699,1.44673 -0.54151,1.80505c-0.10104,0.48577 -0.24642,0.841 -0.30084,1.08303c-0.06731,0.29933 -0.03427,0.48936 -0.12034,0.72203c-0.04668,0.12618 -0.06017,0.30084 -0.12034,0.36101c-0.06017,0.06017 -0.12111,0.0698 -0.1805,0.06017c-0.18782,-0.03048 -0.32283,-0.29274 -0.9627,-0.72203c-0.51443,-0.34512 -1.20898,-0.52928 -1.74489,-0.78219c-0.48669,-0.22968 -0.91202,-0.40648 -1.38387,-0.72202c-0.43025,-0.28772 -0.90253,-0.60168 -1.1432,-0.72202c-0.24068,-0.12034 -0.5511,-0.21725 -0.72202,-0.30084c-0.19488,-0.09532 -0.43176,-0.15686 -0.72203,-0.30084c-0.3143,-0.15591 -0.73002,-0.33511 -0.96269,-0.42118c-0.25237,-0.09336 -0.40427,-0.19917 -0.60169,-0.36102c-0.16777,-0.13753 -0.30084,-0.24067 -0.42118,-0.36101c-0.12033,-0.12033 -0.12033,-0.12033 -0.12033,-0.1805c0,0 0,0 -0.06017,-0.06017c0,0 -0.06017,0 -0.12034,0c-0.06017,0 -0.12034,0 -0.24067,0c-0.06017,0 -0.18051,0 -0.24068,0c-0.06017,0 -0.10973,0.08943 -0.24067,0.12034c-0.05856,0.01382 -0.06017,0 -0.12034,0c-0.06017,0 -0.07779,0.01762 -0.12034,0.06017c-0.04254,0.04254 0,0.06016 0,0.12033c0,0 0.02761,0.04173 0.06017,0.12034c0.02303,0.05559 0.06475,0.09731 0.12034,0.12034c0.07861,0.03256 0.12034,0.12033 0.1805,0.1805c0.06017,0.06017 0.12034,0.18051 0.24068,0.30085c0.06017,0.06016 0.1805,0.1805 0.24067,0.24067c0.06017,0.06017 0.12034,0.12034 0.18051,0.1805c0,0 0.12033,0.06017 0.1805,0.12034c0.06017,0.06017 0.18051,0.18051 0.30085,0.24068c0.12033,0.06017 0.1699,0.14959 0.30084,0.1805c0.11712,0.02765 0.24067,0 0.36101,0c0.06017,0 0.17164,-0.07058 0.24067,-0.12034c0.21829,-0.15733 0.48287,-0.17336 0.78219,-0.24067c0.24204,-0.05443 0.54946,-0.22595 0.78219,-0.36101c0.18764,-0.10889 0.48135,-0.48135 0.72202,-0.72202c0.24068,-0.24068 0.38604,-0.40681 0.48135,-0.60169c0.0836,-0.17092 0.09093,-0.36281 0.12034,-0.60168c0.03031,-0.24623 0.12034,-0.48135 0.12034,-0.84236c0,-0.12034 0.01844,-0.26828 -0.06017,-0.30084c-0.11118,-0.04605 -0.23337,-0.0297 -0.42118,-0.06017c-0.11878,-0.01928 -0.48593,-0.02303 -0.54152,0c-0.07861,0.03256 -0.0918,0.12932 -0.06017,0.1805c0.07074,0.11445 0.2425,0.09946 0.36102,0.12034c0.69357,0.12219 1.08303,0.36101 1.26353,0.42118c0.36102,0.12034 0.78402,0.28918 1.20337,0.36101c0.3024,0.0518 0.60169,0.12034 0.90253,0.12034c0.24067,0 0.60557,0.04819 0.90253,0c0.37562,-0.06096 0.76375,-0.28462 1.1432,-0.54152c0.35231,-0.23852 0.6881,-0.5078 1.08303,-0.84236c0.38956,-0.33 0.54152,-0.60168 0.78219,-0.84236c0.18051,-0.1805 0.24068,-0.36101 0.36102,-0.54151c0.12033,-0.18051 0.30617,-0.47785 0.54151,-0.84236c0.30789,-0.47687 0.4928,-0.71489 0.60169,-0.90253c0.06753,-0.11636 0.06016,-0.12034 0.06016,-0.12034c0,0 0,0.06017 0,0.12034c0,0.06017 0,0.18051 0,0.30084c0,0.18051 0,0.48135 0,0.72202c0,0.30085 -0.04019,0.55532 0.06017,0.7822c0.08777,0.19839 0.15003,0.3537 0.18051,0.54151c0.02891,0.17818 0.06017,0.54152 0.06017,0.78219c0,0.18051 0,0.48135 0,0.66186c0,0.1805 -0.0297,0.3537 -0.06017,0.54151c-0.02892,0.17818 0,0.30084 0,0.54152c0,0.1805 0,0.42118 0,0.66185c0,0.30084 0.05782,0.54618 0,0.90253c-0.03048,0.18781 -0.09003,0.41563 -0.12034,0.66185c-0.03676,0.29859 -0.06017,0.54152 -0.12034,0.84236c-0.06017,0.30084 -0.09002,0.59614 -0.12033,0.84236c-0.02941,0.23887 0,0.42118 -0.06017,0.72202c-0.06017,0.30085 -0.12034,0.60169 -0.12034,0.90253c0,0.30084 -0.06017,0.54152 -0.06017,0.72202c0,0.06017 -0.0276,0.10189 -0.06017,0.18051c-0.02302,0.05559 0,0.12033 0,0.06017l0,-0.06017"/>
  <path fill="none" stroke="#f6c821" stroke-width="NaN" fill-opacity="null" id="svg_19" d="m14.07942,26.29363c0.06017,0 0.06017,0 0.06017,0.06017c0,0 0,0 0.06017,0c0,0 -0.04255,0.01762 0,0.06017c0.04254,0.04254 0.13795,0.07779 0.1805,0.12033c0.04255,0.04255 0.07779,0.0778 0.12034,0.12034c0.04254,0.04255 0.06017,0.06017 0.06017,0.12034c0,0 0.06016,0.06017 0.06016,0.06017c0.06017,0.06016 0.12034,0.12033 0.18051,0.1805c0.06017,0.06017 0.12492,0.09731 0.18051,0.12034c0.07861,0.03256 0.09731,0.12491 0.12033,0.1805c0.03257,0.07862 0.12492,0.09732 0.18051,0.12034c0.07861,0.03257 0.06017,0.12034 0.06017,0.12034c0.06016,0.06017 -0.14117,0.01772 -0.24068,-0.12034c-0.07866,-0.10914 -0.24067,-0.36101 -0.36101,-0.54151c-0.24067,-0.36102 -0.47424,-0.60607 -0.66185,-0.90253c-0.11601,-0.18332 -0.18051,-0.24068 -0.24068,-0.30084c-0.06016,-0.06017 -0.06016,-0.06017 -0.12033,-0.06017c0,0 -0.06017,0 -0.06017,0c-0.06017,0 -0.06017,0 -0.12034,0c0,0 0.05131,0.07058 0.12034,0.12034c0.10914,0.07866 0.27154,0.15607 0.36101,0.30084c0.10003,0.16185 0.25183,0.35035 0.48135,0.60168c0.31689,0.34701 0.59458,0.78657 0.78219,1.08304c0.11601,0.18331 0.24067,0.30084 0.24067,0.36101c0,0 -0.01865,0.03986 -0.1805,-0.06017c-0.14477,-0.08947 -0.30085,-0.30084 -0.48135,-0.48135c-0.18051,-0.1805 -0.36101,-0.36101 -0.54152,-0.54151c-0.1805,-0.18051 -0.24067,-0.30085 -0.30084,-0.36102c-0.06017,-0.06016 -0.09731,-0.12491 -0.12034,-0.1805c-0.03256,-0.07862 -0.06017,-0.12034 -0.12033,-0.12034c0,0 -0.02303,-0.05559 0,0c0.06512,0.15723 0.24067,0.24068 0.30084,0.30084c0.12034,0.12034 0.1805,0.18051 0.24067,0.24068c0.12034,0.12033 0.14794,0.10189 0.18051,0.1805c0.02302,0.05559 0.01762,0.07779 0.06017,0.12034c0.04254,0.04255 0.12033,0.06017 0.12033,0.06017c0.06017,0.06017 0.06017,0.12034 0.12034,0.12034c0,0 0,0 0,0c0.06017,0 0.11135,0.02853 0.06017,0.06016c-0.11445,0.07073 -0.31951,-0.16359 -0.48135,-0.36101c-0.13754,-0.16777 -0.26993,-0.29023 -0.30084,-0.42118c-0.01383,-0.05856 -0.04635,-0.12194 -0.06017,-0.1805c-0.03091,-0.13095 -0.06017,-0.18051 -0.12034,-0.24068c-0.06017,-0.06017 -0.06017,-0.12033 -0.12033,-0.1805c0,0 0,0 0,0c0,-0.06017 0,-0.06017 0,-0.06017c0.06016,0 0.19169,0.10184 0.30084,0.1805c0.06903,0.04976 0.25109,0.23182 0.30084,0.30085c0.07867,0.10914 0.12917,0.23244 0.24067,0.36101c0.19712,0.22727 0.3141,0.40883 0.48135,0.60168c0.19711,0.22728 0.30084,0.36101 0.42118,0.48135c0.06017,0.06017 0.06017,0.12034 0.12034,0.18051c0.06017,0.06017 0.15163,0.07964 0.24067,0.1805c0.14357,0.16264 0.37221,0.22218 0.48135,0.30084c0.13806,0.09951 0.18051,0.18051 0.24067,0.24068c0.06017,0.06017 0.12034,0.06017 0.18051,0.12034c0,0 0.06017,0.06016 0.12034,0.06016c0,0 0.06017,0 0.06017,0c0,0 0.06016,0 0.06016,0c0,0 0.06017,0 0.06017,0c0.06017,0 0.12034,0 0.24068,0.06017c0.12033,0.06017 0.32515,0.1451 0.60168,0.36101c0.20121,0.1571 0.51528,0.32297 0.72202,0.54152c0.14909,0.1576 0.19813,0.19813 0.24068,0.24067c0.04254,0.04255 0,0.12034 0,0.12034c0.06016,0 0.07779,-0.04254 0.12033,0c0.04255,0.04255 0.1051,0.08251 0.36101,0.24067c0.11445,0.07074 0.45477,0.33209 0.66186,0.48135c0.10914,0.07867 0.24067,0.12034 0.30084,0.12034c0,0 0.01744,-0.06275 0,-0.12034c-0.06287,-0.20763 -0.30447,-0.35802 -0.60169,-0.72202c-0.24367,-0.29842 -0.48134,-0.54152 -0.66185,-0.72202c-0.18051,-0.18051 -0.35388,-0.31229 -0.54151,-0.42118c-0.11637,-0.06753 -0.22223,-0.14794 -0.30085,-0.18051c-0.05559,-0.02302 -0.12033,0 -0.12033,0c0,0 -0.06017,0 -0.12034,0c-0.06017,0 -0.12034,0 -0.18051,0c0,0 -0.04605,0.00916 0,0.12034c0.06513,0.15723 0.36101,0.36101 0.48135,0.48135c0.1805,0.18051 0.30084,0.30084 0.48135,0.48135c0.1805,0.1805 0.37426,0.34866 0.54152,0.54151c0.19711,0.22728 0.30084,0.36101 0.36101,0.42118c0.06016,0.06017 0.07779,0.10272 0.12033,0.06017c0.04255,-0.04254 -0.00837,-0.17895 -0.06017,-0.48135c-0.07183,-0.41935 -0.06016,-0.60168 -0.06016,-0.90252c0,-0.24068 -0.06017,-0.48135 -0.06017,-0.60169c0,-0.06017 0.00964,-0.05939 0,0c-0.03048,0.18781 -0.10328,0.36161 -0.12034,0.60169c-0.03016,0.42438 -0.06017,0.60168 -0.06017,0.78219c0,0.1805 -0.06017,0.30084 -0.06017,0.42117c0,0 0,0.06017 0,0.06017c0.06017,-0.06017 0.15003,-0.11303 0.18051,-0.30084c0.02891,-0.17817 0.06017,-0.42118 0.06017,-0.60168c0,-0.18051 0.06017,-0.30085 0.06017,-0.30085c0,-0.06016 0,-0.06016 0,0c0,0.06017 -0.12731,0.29867 -0.18051,0.48135c-0.06936,0.23819 -0.08047,0.43984 -0.1805,0.60169c-0.04474,0.07238 -0.06017,0.12033 -0.06017,0.12033c-0.06017,0.06017 -0.06017,0.06017 -0.06017,0.06017c0,0 -0.04635,-0.06178 -0.06017,-0.12034c-0.03091,-0.13094 -0.10651,-0.24228 -0.12034,-0.30084c-0.03091,-0.13094 -0.03714,-0.18508 -0.06017,-0.24067c-0.03256,-0.07862 -0.16043,-0.14225 -0.42117,-0.36101c-0.56266,-0.47206 -1.4834,-0.99736 -2.16607,-1.38388c-0.11708,-0.06629 -0.77426,-0.3182 -1.02286,-0.42118c-0.17579,-0.07281 -0.36499,-0.17314 -0.48135,-0.24067c-0.18764,-0.10889 -0.36101,-0.24068 -0.48135,-0.36101c-0.12034,-0.12034 -0.18051,-0.24068 -0.24067,-0.30085c-0.06017,-0.06016 -0.06017,-0.12033 -0.12034,-0.24067c-0.06017,-0.12034 -0.12034,-0.1805 -0.30084,-0.36101c-0.06017,-0.06017 -0.22218,-0.25187 -0.30085,-0.36101c-0.04975,-0.06903 -0.06016,-0.12034 -0.06016,-0.18051c0,0 0,0 0.06016,0.06017c0.06017,0.06017 0.12195,0.04635 0.18051,0.06017c0.13094,0.03091 0.24067,0.06017 0.36101,0.12034c0.24068,0.12033 0.48135,0.24067 0.72202,0.36101c0.24068,0.12034 0.47422,0.25212 0.66186,0.36101c0.11636,0.06753 0.24067,0.1805 0.36101,0.30084c0.1805,0.18051 0.66395,0.53902 1.02286,0.84236c0.42368,0.35808 0.63931,0.62657 0.90253,0.84236c0.16777,0.13754 0.20571,0.26588 0.30084,0.36101c0.09514,0.09514 0.16331,0.19324 0.30084,0.36101c0.1079,0.13161 0.24068,0.24068 0.30085,0.30084c0.06016,0.06017 0.12033,0.12034 0.1805,0.12034c0.06017,0 0.18051,0 0.30084,0.06017c0.12034,0.06017 0.30557,0.10769 0.48135,0.18051c0.1243,0.05148 0.18051,0.12033 0.18051,0.12033c0.06017,0.06017 0.06017,0.06017 0.06017,0.06017c-0.18051,-0.12034 -0.42347,-0.41782 -0.60169,-0.54151c-1.0975,-0.76176 -1.73891,-1.39113 -2.46691,-1.98556c-0.59684,-0.48734 -1.07741,-0.85102 -1.44404,-1.08304c-0.29647,-0.18761 -0.67895,-0.46517 -0.9627,-0.78219c-0.25694,-0.28707 -0.49475,-0.52491 -0.72202,-0.72202c-0.12856,-0.1115 -0.18051,-0.18051 -0.24067,-0.18051c0,0 0,0 0.06016,0.12034c0.06017,0.12034 0.08537,0.20571 0.18051,0.30084c0.09513,0.09514 0.31424,0.22407 0.54152,0.42118c0.38569,0.33451 0.94273,0.85271 1.62455,1.44405c0.7071,0.61327 1.26353,1.20337 1.56438,1.50421c0.30084,0.30084 0.48135,0.42118 0.54151,0.48135c0.06017,0.06017 0.06017,0.06017 0.12034,0.06017c0,0 0,0 0,0c0,-0.06017 0,-0.06017 0,-0.12034c0,0 0.06017,-0.06017 0.06017,-0.06017c0.06017,-0.06017 0.12033,-0.06017 0.1805,-0.06017c0.12034,0 0.18448,-0.00736 0.30085,0.06017c0.18763,0.10889 0.28646,0.2657 0.48134,0.36101c0.17092,0.0836 0.24068,0.12034 0.30085,0.18051c0.06016,0.06016 0.06016,0.06016 0.06016,0c0,-0.06017 0.01928,-0.23912 0,-0.12034c-0.06095,0.37562 -0.20251,0.89636 -0.36101,1.50421c-0.13996,0.53678 -0.31586,1.3947 -0.48135,1.98556c-0.18993,0.67816 -0.52779,1.69191 -0.72202,2.04573c-0.16882,0.30755 -0.39698,0.57851 -0.54151,0.84236c-0.24698,0.45087 -0.29563,0.90452 -0.48135,1.38387c-0.11706,0.30214 -0.21782,0.58177 -0.30084,0.78219c-0.11741,0.28345 -0.10794,0.48661 -0.24068,0.78219c-0.11023,0.24547 -0.20553,0.46698 -0.30084,0.66186c-0.08359,0.17092 -0.07058,0.29198 -0.12034,0.36101c-0.15733,0.21829 -0.25803,0.35309 -0.36101,0.60169c-0.07281,0.17578 -0.14794,0.22222 -0.1805,0.30084c-0.02303,0.05559 -0.05131,0.07058 -0.12034,0.12033c-0.10915,0.07867 -0.25186,0.16201 -0.36101,0.24068c-0.06903,0.04975 -0.06017,0.06016 -0.12034,0.06016c0,0 0.04255,0.01763 0,0.06017c-0.04254,0.04255 -0.13796,0.01763 -0.1805,0.06017c-0.04255,0.04255 -0.01412,0.1295 -0.06017,0.24068c-0.03257,0.07861 -0.12034,0.12033 -0.18051,0.1805c-0.06017,0.06017 -0.06017,0.06017 -0.12033,0.06017c-0.06017,0 -0.08943,0.01061 -0.12034,-0.12034c-0.02765,-0.11711 0,-0.24067 0,-0.42118c0,-0.06017 0,-0.1805 0.06017,-0.24067c0.06016,-0.06017 0.12033,-0.12034 0.1805,-0.1805c0.06017,-0.06017 0.12034,-0.12034 0.24068,-0.18051c0,0 0.06016,0 0.06016,0c0.06017,0 0.06017,0 0.06017,0.12034c0,0.06017 0,0.1805 -0.06017,0.30084c-0.06016,0.12033 -0.07058,0.23181 -0.12033,0.30084c-0.07867,0.10915 -0.06017,0.1805 -0.12034,0.24067c0,0 0,0.06017 -0.06017,0.06017c-0.06017,0 -0.09541,-0.03525 -0.1805,-0.12034c-0.04255,-0.04254 -0.06017,0 0,-0.06016c0.06017,-0.06017 0.13153,-0.04167 0.24067,-0.12034c0.13806,-0.09951 0.23011,-0.12623 0.30084,-0.24067c0.03164,-0.05118 0.06017,-0.06017 0.12034,-0.06017c0,0 0,0 0.06017,0c0,0 0,0.06017 0,0.12033c0,0.06017 0,0.12034 0,0.24068c0,0.12034 -0.02761,0.22223 -0.06017,0.30084c-0.04605,0.11118 0,0.24068 0,0.30085c0,0.06016 0.06017,0.12033 0.06017,0.12033c0.06017,0 0.06017,-0.06016 0.12034,-0.1805c0.06016,-0.12034 0.10183,-0.1917 0.1805,-0.30085c0.04975,-0.06903 0.12034,-0.1805 0.18051,-0.24067c0.12033,-0.12034 0.19169,-0.22217 0.30084,-0.30084c0.06903,-0.04976 0.12034,-0.06017 0.1805,-0.12034c0.06017,-0.06017 0.06017,-0.06017 0.12034,-0.06017c0,0 0.06017,0 0.06017,0c0,0.06017 -0.02761,0.1019 -0.06017,0.18051c-0.02302,0.05558 -0.12034,0.12034 -0.1805,0.1805c-0.06017,0.06017 -0.16206,0.14795 -0.24068,0.18051c-0.05559,0.02303 -0.12034,0.06017 -0.12034,0.06017c0,0 0,0 0,0c0,-0.12034 0,-0.30084 0.12034,-0.54152c0.18051,-0.36101 0.47405,-1.02571 0.78219,-1.80505c0.76415,-1.93263 1.29002,-3.25946 1.56438,-4.09146c0.322,-0.97644 0.67937,-1.84236 0.9627,-2.94826c0.16695,-0.65165 0.2477,-1.02091 0.36101,-1.44404c0.06417,-0.23964 0.14117,-0.40346 0.24067,-0.54151c0.07867,-0.10915 0.06017,-0.24068 0.12034,-0.30085c0.06017,-0.06017 0.06017,-0.06017 0.06017,-0.1805c0,-0.06017 0,-0.12034 0,-0.12034c0,-0.06017 0.03163,-0.06915 0,-0.12034c-0.07073,-0.11445 -0.23355,-0.19195 -0.42118,-0.30084c-0.23273,-0.13506 -0.53802,-0.30618 -0.90253,-0.54152c-0.47687,-0.30788 -0.97885,-0.69888 -1.50421,-1.08303c-0.31099,-0.2274 -0.7328,-0.46592 -1.08303,-0.72202c-0.311,-0.22741 -0.52432,-0.55425 -0.66186,-0.72202c-0.32368,-0.39483 -0.55491,-0.58508 -0.78219,-0.78219c-0.12856,-0.11151 -0.14361,-0.23572 -0.30084,-0.30084c-0.05559,-0.02303 -0.11147,-0.13076 -0.1805,-0.18051c-0.10915,-0.07867 -0.12034,-0.12034 -0.18051,-0.24067c-0.06017,-0.12034 -0.06017,-0.36102 -0.06017,-0.54152c0,-0.42118 0.01737,-0.65393 0.12034,-0.90253c0.07281,-0.17578 0.14117,-0.34329 0.24067,-0.48135c0.07867,-0.10914 0.11601,-0.27743 0.24068,-0.42117c0.08815,-0.10164 0.18508,-0.0832 0.24067,-0.06017c0.07861,0.03256 0.11148,0.13075 0.18051,0.1805c0.10914,0.07867 0.1805,0.06017 0.24067,0.06017c0.06017,0 0.03714,0.00458 0.06017,0.06017c0.03256,0.07861 0.06017,0.12034 0.06017,0.24067c0,0.12034 -0.11148,0.19092 -0.18051,0.24068c-0.10914,0.07867 -0.30084,0.06017 -0.48135,0.06017c-0.24067,0 -0.54151,0 -0.84236,0c-0.30084,0 -0.5387,-0.03003 -1.02286,-0.06017c-0.18016,-0.01122 -0.27592,0.02492 -0.36101,-0.06017c-0.08509,-0.08509 0,-0.18051 0,-0.24068c0,-0.12033 0.13307,-0.22347 0.30084,-0.36101c0.13161,-0.10789 0.23728,-0.13167 0.42118,-0.1805c0.29652,-0.07875 0.66204,-0.11369 0.78219,-0.12034c0.54402,-0.03013 0.78863,-0.11546 1.02286,-0.06017c0.26189,0.06183 0.30085,0.12034 0.30085,0.24068c0,0 -0.06017,0 -0.12034,0.06016c0,0 -0.12282,0.05098 -0.36101,0.12034c-0.18268,0.0532 -0.42118,0.12034 -0.60169,0.12034c-0.30084,0 -0.54618,0.05783 -0.90252,0c-0.18782,-0.03048 -0.24068,-0.06017 -0.24068,-0.12034c0,0 0.06017,0 0.12034,0c0,0 0.12034,0 0.1805,0c0.42118,0 1.40258,-0.11343 2.46691,0.12034c0.74336,0.16327 1.07633,0.37269 1.38388,0.54152c0.11794,0.06474 0.24067,0.1805 0.24067,0.1805l0.06017,0.06017l-0.06017,0"/>
 </g>
</svg>